<svg xmlns="http://www.w3.org/2000/svg" viewBox="0 0 79.32 181.91"><defs><style>.cls-1{fill:#250c07;}.cls-1,.cls-10,.cls-11,.cls-12,.cls-13,.cls-14,.cls-15,.cls-16,.cls-17,.cls-19,.cls-2,.cls-20,.cls-3,.cls-4,.cls-5,.cls-6,.cls-7,.cls-8,.cls-9{fill-rule:evenodd;}.cls-2{fill:#1e0602;}.cls-3{fill:#eb6b5d;}.cls-4{fill:#d64341;}.cls-18,.cls-5{fill:#fff;}.cls-6{fill:#d9d4d6;}.cls-7{fill:#f4ad85;}.cls-8{fill:#ed9072;}.cls-9{fill:#4e3735;}.cls-10{fill:#f2f0f0;}.cls-11{fill:#cecbcb;}.cls-12{fill:#a6633a;}.cls-13{fill:#5f1e15;}.cls-14{fill:#eeeced;}.cls-15{fill:#e37b64;}.cls-16{fill:#3c2724;}.cls-17{fill:#331b16;}.cls-19{fill:#ea6060;}.cls-20{fill:#4b120d;}</style></defs><title>Asset 1</title><g id="Layer_2" data-name="Layer 2"><g id="OBJECTS"><path class="cls-1" d="M34.43,94.93l-1.19,1.46S34,109.1,35.81,125.5,41,171.66,41,174.57s4.42,1.22,5,.4-1.41-58.72-1-64c.15-1.84,3-1.15,4,2.53,2,6.86,2.93,21.35,3.56,29.6,1,12.67,2.74,32,2.61,33.06s4,2,4.77.41c0,0,.17-.24.11-1.12s.82-80.53-.22-82.69S36.89,89.54,34.43,94.93Z"/><path class="cls-2" d="M34.43,94.93l-1.19,1.46s.18,2.85.55,7.6c1.47-1.63,4.08-3.51,8.92-3.28,8.35.39,13.95,6.58,14.69,16.72s1.65,49.79,1.19,53.74-2.9,3.63-3.68.29c.2,2.65.32,4.4.28,4.69-.13,1,4,2,4.77.41,0,0,.17-.24.11-1.12s.82-80.53-.22-82.69-23-3.21-25.42,2.18Zm6.48,78.55c2,.65,3.57-.38,3.63-3,.07-3.2-3.13-58.37-1.79-59.86s3.48-.63,3.48-.63h0A1,1,0,0,0,45,111c-.45,5.29,1.52,63.19,1,64s-5.06,2.51-5-.4C41,174.35,41,174,40.91,173.48Z"/><path class="cls-3" d="M42.38,175.33a2.79,2.79,0,0,0-2-.4c-1.06.27-7.18,3.16-8.16,3.56s-2,1.9-1.24,2.77,5.94.76,8.68.22a18.87,18.87,0,0,1,5.86-.1c1,.07,2.19-2.11,1.22-5.26S46,175.9,42.38,175.33Z"/><path class="cls-4" d="M42.38,175.33a2.79,2.79,0,0,0-2-.4L40,175c.88.19,2.64.73,3,1.89a4.36,4.36,0,0,1-.7,4.26,25.56,25.56,0,0,1,3.17.19c1,.07,2.19-2.11,1.22-5.26S46,175.9,42.38,175.33Z"/><path class="cls-5" d="M30.78,180a1.21,1.21,0,0,0,.16,1.28c.78.86,5.94.76,8.68.22a18.87,18.87,0,0,1,5.86-.1c.64.05,1.34-.8,1.53-2.22-.75,1-2,1.13-4.53.93s-4.91.47-8.14.77C32.08,181.08,31.14,180.4,30.78,180Z"/><path class="cls-6" d="M42.31,181.19a25.56,25.56,0,0,1,3.17.19c.64.05,1.34-.8,1.53-2.22-.7,1-1.87,1.11-4,1A3,3,0,0,1,42.31,181.19Z"/><path class="cls-3" d="M55.62,176.17a2.9,2.9,0,0,1,4-.42,3.14,3.14,0,0,1,1.63,1.48c.44,1,1.28,1.51,1.43,2.64s-.19,2-1.75,2H58.37c-1.11,0-2.77.17-3.34-1.21s0-2.65-.2-3.36S55.62,176.17,55.62,176.17Z"/><path class="cls-4" d="M55.63,176.17a2.88,2.88,0,0,1,3.95-.42,3.14,3.14,0,0,1,1.63,1.48c.44,1,1.28,1.51,1.43,2.64s-.19,2-1.75,2H59.5c2.22-1.82.3-5.37-1.47-5.68a4.61,4.61,0,0,0-3.21,1.05C54.69,176.59,55.63,176.17,55.63,176.17Z"/><path class="cls-5" d="M62.66,180.09c.08,1-.31,1.81-1.77,1.81H58.37c-1.11,0-2.77.17-3.34-1.21a3.35,3.35,0,0,1-.23-.92s.65.89,2.79,1S62.29,181,62.66,180.09Z"/><path class="cls-6" d="M62.66,180.09c.08,1-.31,1.81-1.77,1.81H59.5a2.68,2.68,0,0,0,.79-1.05C61.48,180.8,62.45,180.6,62.66,180.09Z"/><path class="cls-7" d="M55.36,95.65a5.33,5.33,0,0,1-1.45.28c-.85.06-.24,1.8,1.15,1.6s2.46-.5,2.39-1.18S57,94.93,55.36,95.65Z"/><path class="cls-8" d="M56.61,97.19a2,2,0,0,0,.56-.28c-.14-.32-.11-.76-.3-.83s-.4.26-.78.53a1.8,1.8,0,0,1-1.08.33,3.22,3.22,0,0,1-1.48-.48,1.32,1.32,0,0,0,1.53,1.07l.4-.07A7,7,0,0,0,56.61,97.19Z"/><path class="cls-9" d="M44.34,42.85l16.29.95a5,5,0,0,1,4.67,5.25L63.78,75.14a5,5,0,0,1-5.25,4.67l-16.3-1a5,5,0,0,1-4.67-5.26l1.52-26.08A5,5,0,0,1,44.34,42.85Z"/><path class="cls-7" d="M12,48.92A12.94,12.94,0,0,0,10.69,46c-.57-.67-2.36-1-2.92-2.16s-1.57-3.16.81-4,4-1,4.36-.19S14.07,42,14,43s-.68,2.71.45,4.5S12,48.92,12,48.92Z"/><path class="cls-7" d="M38,45.37c-.31.37-.62.76-.92,1.17-2.4,3.25-6,9.09-9.4,13.17-3.66,4.37-3,5.43-5.88.78-3-4.91-6.12-10.5-7.2-12.59-.16-.32-.88-1.87-1.48-1.38-.29.22.3,1.21-.33,1.53s-.43-.7-.86.87a193.83,193.83,0,0,0,9.42,18.51c.94,1.14,4.39,1.5,5.37.51l.11-.08c3-2.85,8-6.22,11.82-11a33.86,33.86,0,0,0,4.16-6.67A52,52,0,0,1,38,45.37Z"/><path class="cls-7" d="M78.23,84.86a1.35,1.35,0,0,1,.09.33c.12.71.9,5,1,5.93S78.25,94.76,77,95.06,73.41,93,74.77,90s1.2-5.17,1-8a75.25,75.25,0,0,0-1.54-10.85c-1-4-4.9-8.38-4.9-8.38l4.13-2.92A48.68,48.68,0,0,1,77,67.68C78.2,71.44,78.23,84.86,78.23,84.86Z"/><path class="cls-8" d="M78.23,84.86a1.35,1.35,0,0,1,.09.33c.12.71.9,5,1,5.93S78.25,94.76,77,95.06c-.71.17-1.76-.51-2.29-1.68h0l.56-.49s1.24,1.59,2.35.62,1.09-3.61.57-6a21.34,21.34,0,0,1-.57-6.76c.06-3.79-.56-11.82-1-13.19S74.35,63.47,71.12,65c-1-1.37-1.79-2.29-1.79-2.29l4.13-2.92A48.68,48.68,0,0,1,77,67.68C78.2,71.44,78.23,84.86,78.23,84.86Z"/><path class="cls-8" d="M51.77,32.94l-.1,2.48v5.85c0,.57.72,1,1.34,1.49a3.53,3.53,0,0,1-1.84,5.71c-1.61.25-9.39-1.62-9.91-2.07-.36-.31,2-3.14,1.75-4l.15,0a2.78,2.78,0,0,0,1.13-.65c.85-.93.81-5.06,0-6.14S51.77,32.94,51.77,32.94Z"/><path class="cls-8" d="M11.38,47.34v0h0v0h0v0h0v0h0v0h0v0h0v0h0v0h0v0l0,0a4.12,4.12,0,0,0-.53-.94c-.57-.67-2.36-1-2.92-2.17s-1.58-3.15.81-4l1.1-.35a1.93,1.93,0,0,0-1.18,2.9c1.16,2.16,2.87,2.34,4,1.2a10.2,10.2,0,0,1,1.47-1.3A1.82,1.82,0,0,1,14,43c0,.45-.2,1.08-.22,1.81a1.06,1.06,0,0,0-1.16.48,1.8,1.8,0,0,0-.32,1.49l.57,1.3c1.57,3.54,6,13.26,8.51,16.5,2.78,3.53,5.55,1.71,3.87-1.68.56-.64,1.3-1.71,2.49-3.14,2.05-2.46,4.17-5.55,6-8.33A44.1,44.1,0,0,0,36,59.81c-3.28,3.28-6.83,5.83-9.14,8l-.11.08c-1,1-4.43.63-5.37-.51A193.83,193.83,0,0,1,12,48.92S11.71,48.12,11.38,47.34Z"/><path class="cls-10" d="M38,45.37c-.31.37-.62.76-.92,1.17-2.4,3.25-6.33,8.17-9.74,12.25-.93,1.11-1.59,2-2.09,2.65h0s-.18.42.12.5a8.32,8.32,0,0,1,2.81,2.65c.63,1.18.44,2.1.15,2.38A93.5,93.5,0,0,0,38.68,56.85a33.86,33.86,0,0,0,4.16-6.67A52,52,0,0,1,38,45.37Z"/><path class="cls-11" d="M38,45.37c-.31.37-.62.76-.92,1.17-.65.87-2.58,3.38-3.4,4.44.51,3.31-.05,8.76-2.91,12a31.88,31.88,0,0,1-2.29,2.36A1.75,1.75,0,0,1,28.36,67,93.5,93.5,0,0,0,38.68,56.85a33.86,33.86,0,0,0,4.16-6.67A52,52,0,0,1,38,45.37Z"/><path class="cls-7" d="M12.79,44,14,43.18a2.55,2.55,0,0,1,1.76-1.06c1.32-.26-.53-2.95-2.18-1C11.59,43.31,12.79,44,12.79,44Z"/><path class="cls-8" d="M12.79,44,14,43.18a2.55,2.55,0,0,1,1.76-1.06.5.5,0,0,0,.44-.39c-1.1-.45-2.59.79-3.65,1.88A.77.77,0,0,0,12.79,44Z"/><path class="cls-12" d="M32.57,93.39s-.38,2.2,0,2.87,4.08,2.94,14.14,2.61,13.58-2.82,13.95-3.52-.16-2.86-.16-2.86L46.65,95.91Z"/><path class="cls-13" d="M34.28,94.92a9.71,9.71,0,0,0-.05,2.68.79.79,0,0,0,.71.24,12.38,12.38,0,0,1,.18-2.78C35.34,94.9,34.28,94.92,34.28,94.92Z"/><path class="cls-13" d="M37.4,95.88a9.75,9.75,0,0,0,0,2.68.74.74,0,0,0,.7.24A12.38,12.38,0,0,1,38.24,96C38.46,95.86,37.4,95.88,37.4,95.88Z"/><path class="cls-13" d="M56.43,95.06a9.83,9.83,0,0,1,0,2.69.77.77,0,0,1-.7.24,12.46,12.46,0,0,0-.18-2.79C55.37,95,56.43,95.06,56.43,95.06Z"/><path class="cls-13" d="M50.2,96.24a9.83,9.83,0,0,1,0,2.69.77.77,0,0,1-.7.24,12.46,12.46,0,0,0-.18-2.79C49.14,96.22,50.2,96.24,50.2,96.24Z"/><path class="cls-5" d="M40,95.6l4.78.31a.58.58,0,0,1,.54.57v2.45a.5.5,0,0,1-.54.5L40,99.12a.57.57,0,0,1-.54-.57V96.1A.5.5,0,0,1,40,95.6Z"/><path class="cls-14" d="M61.27,92.13c-1.69,8.4-27.33,5.44-29.12,2.2h0c-.6-1.09-.24-2.7.05-4.13,2.84-14-2.31-46.43,10.9-48-.67,4.53,4.59,7.26,9.91.52a29.74,29.74,0,0,1,6.37,2.57c2,1,3.21,1.68,3.53,3.91,1.2,8.21-3.76,18-3.85,26.39C59,83.43,62.7,85,61.27,92.13Z"/><path class="cls-11" d="M61.27,92.13c-.74,3.68-6.06,5.18-12,5.43,8.77-7.51,4.55-21.67,5.7-35.06C55.9,52,53,47.28,50.66,45.16A14.15,14.15,0,0,0,53,42.76a29.74,29.74,0,0,1,6.37,2.57c2,1,3.21,1.68,3.53,3.91,1.2,8.21-3.76,18-3.85,26.39C59,83.43,62.7,85,61.27,92.13Z"/><path class="cls-2" d="M37,14.33a6.23,6.23,0,0,0-.8,2.39c-.07,1.17,2.35,1.83,3.19,1.9s23.49,2.62,23.49,2.62a.85.85,0,0,0,.77-.75c0-.68-3.2-9.47-3.2-9.47Z"/><path class="cls-15" d="M37.6,20.54a3.63,3.63,0,1,1-3.89,3.34A3.63,3.63,0,0,1,37.6,20.54Z"/><path class="cls-15" d="M62.38,22.42a3.63,3.63,0,1,1-3.89,3.34A3.63,3.63,0,0,1,62.38,22.42Z"/><path class="cls-7" d="M50.55,3.13h0A12.47,12.47,0,0,1,62,16.46l-.86,11.25A12.46,12.46,0,0,1,47.82,39.16h0A12.46,12.46,0,0,1,36.37,25.83l.85-11.25A12.46,12.46,0,0,1,50.55,3.13Z"/><path class="cls-8" d="M55.53,4.6h0A12.47,12.47,0,0,1,62,16.46l-.86,11.25A12.46,12.46,0,0,1,47.82,39.16h0A12.41,12.41,0,0,1,43.43,38C55.54,39,57.51,30.87,58,24c.77-10.18-10.61-7.36-19.72-8-.4,0-.8-.08-1.18-.12l.09-1.23a12.41,12.41,0,0,1,.68-3.19C43,8.69,50.1,5.21,53.34,4.8l2.08-.26.07,0C55.43,4.6,55.42,4.61,55.53,4.6Z"/><path class="cls-9" d="M60.66,15.65s-.18,2.31-.29,3.81.12,2,.83,2.56c0,0-.57,1.41.24,1.81a1.3,1.3,0,0,1,1.28-1.19l.75-9.84a5,5,0,0,1-2.84,2A4,4,0,0,1,60.66,15.65Z"/><path class="cls-15" d="M40.23,26.45a1.8,1.8,0,1,1-1.92,1.66A1.81,1.81,0,0,1,40.23,26.45Z"/><path class="cls-15" d="M55.65,27.62a1.8,1.8,0,1,1-1.93,1.66A1.81,1.81,0,0,1,55.65,27.62Z"/><path class="cls-16" d="M63.6,20.49A10.33,10.33,0,0,0,61,18h0l-.05,0-.33-.22a7.27,7.27,0,0,1-2.71-3.1c-1.08.63-5.31.2-6.89,0l-.54-.06h-.07c-7.06-.82-14,.38-14.21,2.17C31,3.36,47.27-7.89,59.84,7.23,67,8.12,65.83,15.47,63.6,20.49Z"/><path class="cls-9" d="M35.27,10.12a11.65,11.65,0,0,1,2.48-5.89A18.21,18.21,0,0,0,58,5.23c.4.39.8.81,1.2,1.25C56.08,9.32,48.06,14.66,35.27,10.12Z"/><path class="cls-17" d="M63.6,20.49A10.33,10.33,0,0,0,61,18h0l-.05,0-.33-.22a7.27,7.27,0,0,1-2.71-3.1c-1.08.63-5.31.2-6.89,0l-.54-.06h-.07c-.66-.08-1.32-.14-2-.18,9.14.34,13.73-2.56,15.89-4.78C66.2,12.38,65.15,17,63.6,20.49Z"/><path class="cls-6" d="M45.27,46.22l.78-.16.2.73.26-.7a11.66,11.66,0,0,1,1.26.49c0,.06,0,.81-.32,1a2.75,2.75,0,0,1-1.77,0C45.35,47.26,45.27,46.22,45.27,46.22Z"/><path class="cls-5" d="M52.58,41.94a7.87,7.87,0,0,1-6.07,4.15,11.08,11.08,0,0,1,1.38,2.77c.28,1.16,4.46-1.89,5.85-5.93C53.74,42.93,52.83,41.71,52.58,41.94Z"/><path class="cls-5" d="M44.9,48.47c-.78.08-2.53-1.95-2.17-6.18A2.27,2.27,0,0,1,43.82,42a3.89,3.89,0,0,0,2.23,4S44.83,47.46,44.9,48.47Z"/><path class="cls-14" d="M56.67,47.3l3.12-1.76S69.33,50.85,74.93,60c.46.77.29,1.06-.7,1.6-1.29.71-3.3,2.33-3.79,2.64a1.66,1.66,0,0,1-1.09.19h0a23.81,23.81,0,0,0-9.79-5.23A14.3,14.3,0,0,1,56.67,47.3Z"/><path class="cls-11" d="M56.67,47.3l3.12-1.76s1.05.59,2.66,1.7a4.76,4.76,0,0,0-1.79,4.48c.37,4.65,7.69,12.8,13.69,7.35l.58.9c.46.77.29,1.06-.7,1.6-1.29.71-3.3,2.33-3.79,2.64a1.66,1.66,0,0,1-1.09.19h0a23.81,23.81,0,0,0-9.79-5.23A14.3,14.3,0,0,1,56.67,47.3Z"/><path class="cls-7" d="M72.81,93.18c-.62.58.94,1.54,1.89.52s1.59-1.91,1.11-2.4c-.33-.34-1.11-1.28-1.24-.61A8.32,8.32,0,0,1,72.81,93.18Z"/><path class="cls-8" d="M72.75,93.73a1.31,1.31,0,0,0,2,0c.23-.25.45-.5.63-.73a3.47,3.47,0,0,1-.26-.33c-.36-.51-.68.13-1,.86S72.78,93.74,72.75,93.73Z"/><path class="cls-16" d="M54.85,43.68c-.92,3.23-6.12,23,4.79,26.6,0,0,1.39.3,1.83.37a.41.41,0,0,0,.25-.64S50.8,67.48,57.81,44.54c0,0,.29-.56-.1-.86C57.08,43.18,55.21,42.45,54.85,43.68Z"/><path class="cls-16" d="M42.22,42.39S35,52.68,33.56,65.09a36.23,36.23,0,0,1,4.21-18.92A17.29,17.29,0,0,1,39.9,43C40.45,42.58,42,41.75,42.22,42.39Z"/><rect class="cls-18" y="41.81" width="19.56" height="27.9" rx="0.56" ry="0.56"/><path class="cls-14" d="M17.35,41.81H19a.56.56,0,0,1,.56.56V69.15a.56.56,0,0,1-.56.56H.56A.56.56,0,0,1,0,69.15V67C19.7,67.74,17.35,41.81,17.35,41.81Z"/><path class="cls-7" d="M8.31,40.68,7.74,41l.32.82a2.05,2.05,0,0,1,1.3,1c.3.72,4.75.92,4.29-1S9.72,40.21,8.31,40.68Z"/><path class="cls-8" d="M8.31,40.68,7.74,41l.32.82a2.05,2.05,0,0,1,1.3,1c.26.62,3.55.85,4.21-.27-2.25.89-3.46-.71-4.38-1S8.31,40.68,8.31,40.68Z"/><path class="cls-19" d="M2.8,45.4H2.15V44.14c0-.15,0-.29,0-.41L2,43.88l-.27.22-.34-.41L2.22,43H2.8V45.4ZM5,44.22a1.6,1.6,0,0,1-.21.92.72.72,0,0,1-.64.29.72.72,0,0,1-.64-.3,1.55,1.55,0,0,1-.22-.91,1.64,1.64,0,0,1,.21-.93.74.74,0,0,1,.65-.3.76.76,0,0,1,.64.31,1.65,1.65,0,0,1,.21.92ZM4,44.22a1.76,1.76,0,0,0,0,.55.18.18,0,0,0,.17.15c.08,0,.13-.05.17-.15a2.26,2.26,0,0,0,0-.55,2.29,2.29,0,0,0,0-.56c0-.1-.09-.15-.17-.15a.18.18,0,0,0-.17.15,1.83,1.83,0,0,0,0,.56Zm3,0a1.6,1.6,0,0,1-.21.92.74.74,0,0,1-.65.29.75.75,0,0,1-.64-.3,2.12,2.12,0,0,1,0-1.84.74.74,0,0,1,.64-.3.76.76,0,0,1,.65.31,1.65,1.65,0,0,1,.21.92Zm-1.07,0a2.28,2.28,0,0,0,0,.55c0,.1.09.15.17.15a.18.18,0,0,0,.17-.15,1.84,1.84,0,0,0,0-.55,1.88,1.88,0,0,0,0-.56.18.18,0,0,0-.17-.15c-.08,0-.13.05-.17.15a2.38,2.38,0,0,0,0,.56ZM1.27,45.7H7.11v.15H1.27Z"/><path class="cls-9" d="M1.86,48.49a.18.18,0,0,1,0-.36H17.7a.18.18,0,0,1,0,.36ZM17.7,65a.18.18,0,0,1,0,.36H14.83a.18.18,0,1,1,0-.36ZM14,65a.18.18,0,0,1,0,.36h-.88a.18.18,0,0,1,0-.36Zm-12.1.36a.18.18,0,0,1,0-.36H12.2a.18.18,0,1,1,0,.36Zm0-1.44a.19.19,0,0,1-.18-.19.18.18,0,0,1,.18-.18H17.7a.18.18,0,0,1,.18.18.19.19,0,0,1-.18.19Zm15.84-2a.18.18,0,1,1,0,.36H14.83a.18.18,0,1,1,0-.36Zm-3.74,0a.18.18,0,0,1,0,.36h-.88a.18.18,0,1,1,0-.36Zm-12.1.36a.18.18,0,1,1,0-.36H12.2a.18.18,0,0,1,0,.36Zm0-1.44a.18.18,0,0,1,0-.36H17.7a.18.18,0,1,1,0,.36Zm0-2a.18.18,0,0,0-.18.18.19.19,0,0,0,.18.19H4.74A.19.19,0,0,0,4.92,59a.18.18,0,0,0-.18-.18Zm3.74,0a.18.18,0,0,0-.18.18.19.19,0,0,0,.18.19h.88A.19.19,0,0,0,6.66,59a.18.18,0,0,0-.18-.18Zm12.1.37a.19.19,0,0,0,.18-.19.18.18,0,0,0-.18-.18H7.36a.18.18,0,0,0-.18.18.19.19,0,0,0,.18.19ZM1.86,57.75a.18.18,0,1,1,0-.36H17.7a.18.18,0,1,1,0,.36Zm15.84-2a.19.19,0,0,1,.18.19.18.18,0,0,1-.18.18H14.83a.19.19,0,0,1-.19-.18.2.2,0,0,1,.19-.19Zm-3.74,0a.19.19,0,0,1,.18.19.18.18,0,0,1-.18.18h-.88a.18.18,0,0,1-.18-.18.19.19,0,0,1,.18-.19Zm-12.1.37a.18.18,0,0,1-.18-.18.19.19,0,0,1,.18-.19H12.2a.19.19,0,0,1,.18.19.18.18,0,0,1-.18.18Zm0-1.45a.18.18,0,1,1,0-.36H17.7a.18.18,0,1,1,0,.36Zm15.84-2a.18.18,0,1,1,0,.36H14.83a.18.18,0,1,1,0-.36Zm-3.74,0A.18.18,0,1,1,14,53h-.88a.18.18,0,0,1,0-.36ZM1.86,53a.18.18,0,0,1,0-.36H12.2a.18.18,0,1,1,0,.36Zm0-1.44a.18.18,0,0,1-.18-.18.19.19,0,0,1,.18-.19H17.7a.19.19,0,0,1,.18.19.18.18,0,0,1-.18.18Zm0-2a.18.18,0,0,0,0,.36H4.74a.18.18,0,0,0,0-.36Zm3.74,0a.18.18,0,0,0,0,.36h.88a.18.18,0,0,0,0-.36Zm12.1.36a.18.18,0,0,0,0-.36H7.36a.18.18,0,1,0,0,.36Z"/><path class="cls-20" d="M50.58,28.71a3.66,3.66,0,1,1-7.32-.36h0a.65.65,0,0,1,.66-.6L50,28a.64.64,0,0,1,.6.67Z"/><path class="cls-4" d="M49.08,31.49a3.67,3.67,0,0,1-2.34.7,3.61,3.61,0,0,1-1.91-.65A2.28,2.28,0,0,1,47,30.3,2.32,2.32,0,0,1,49.08,31.49Z"/><path class="cls-5" d="M44.13,27.76l5.68.28a1.29,1.29,0,0,1-.69,1.37c-.52.14-4.63-.16-4.91-.5A2.26,2.26,0,0,1,44.13,27.76Z"/><path class="cls-20" d="M54.83,22a.44.44,0,0,1,.61.2.46.46,0,0,1-.2.61l-1.59.8,1.32,1a.45.45,0,0,1-.55.72l-1.87-1.43a.55.55,0,0,1-.16-.18.46.46,0,0,1,.2-.61Z"/><path class="cls-20" d="M39.65,21.47a.47.47,0,0,1-.08-.64.46.46,0,0,1,.64-.08l2,1.54a.46.46,0,0,1,.08.64.51.51,0,0,1-.16.13L40,24.11a.45.45,0,1,1-.4-.81l1.49-.74Z"/><path class="cls-20" d="M52.8,17.57a.54.54,0,0,0-.44.63.53.53,0,0,0,.63.44,3.54,3.54,0,0,1,3,1,.54.54,0,1,0,.79-.75A4.69,4.69,0,0,0,52.8,17.57Z"/><path class="cls-20" d="M38.71,17.63a.54.54,0,0,0,.54.94,3.52,3.52,0,0,1,3.21-.11.55.55,0,0,0,.73-.25.54.54,0,0,0-.24-.73A4.66,4.66,0,0,0,38.71,17.63Z"/></g></g></svg>