<svg xmlns="http://www.w3.org/2000/svg" viewBox="0 0 87.14 193.19"><defs><style>.cls-1{fill:#fdbd8e;}.cls-2{fill:#fb9988;}.cls-3{fill:#fd7d6f;}.cls-4{fill:#ffdaba;}.cls-5{fill:#007c7e;}.cls-6{fill:#006060;}.cls-7{fill:#118c8c;}.cls-8{fill:#fff0e7;}.cls-9{fill:#161818;}.cls-10{fill:#4f83a7;}.cls-11{fill:#749ec2;}.cls-12{fill:#a4c3db;}.cls-13{fill:#ff9300;}.cls-14{fill:#cf691f;}.cls-15{fill:#63ccca;}.cls-16{fill:#651924;}.cls-17{fill:#7e2426;}.cls-18{fill:#a94739;}.cls-19{fill:#edb838;}.cls-20{fill:#ffd455;}.cls-21{fill:#940b20;}.cls-22{fill:#ac1426;}.cls-23{fill:#ffa07f;}.cls-24{fill:#ff7d6f;}.cls-25{fill:#cf4a57;}.cls-26{fill:#ffbf90;}.cls-27{fill:#ebf1ed;}</style></defs><title>SchoolGirl2_1</title><g id="Layer_2" data-name="Layer 2"><g id="OBJECTS"><path class="cls-1" d="M87.11,18.85c.45.41-3.47,8.62-4.24,9.21l-1.17.66-1.86,4.09a6.63,6.63,0,0,1-1.68-.51,5.51,5.51,0,0,1-1.51-1,4.31,4.31,0,0,1-.72-.85,13.78,13.78,0,0,1,.75-2.42s-2.5-1.92-2.37-3.65a8,8,0,0,0-.15-3.05,14.54,14.54,0,0,1-.5-1.54,1.89,1.89,0,0,1,.28-1.54.42.42,0,0,1,.15-.11.37.37,0,0,1,.36.11l0,0a6.68,6.68,0,0,1,2.16,3.88S79.57,18.07,80,16.7c0,0,1.6-2.64,2.15-2.44a1.13,1.13,0,0,1,.48.3,1.3,1.3,0,0,1,.28.37s-2.6,6-2.51,6.32S84,16.79,84.55,16.7a.69.69,0,0,1,.51.24,3,3,0,0,1,.46.53,6.34,6.34,0,0,1,.41.6l.18.1.59.36Z"/><path class="cls-2" d="M87.11,18.85c.45.41-3.47,8.62-4.24,9.21l-1.17.66-1.86,4.09a6.63,6.63,0,0,1-1.68-.51A10.78,10.78,0,0,0,79.71,27c0-1.79-.36-3.58-.14-5.35a11.73,11.73,0,0,1,1-3.21,28.5,28.5,0,0,1,1.6-3.17,7.8,7.8,0,0,1,.48-.71,1.3,1.3,0,0,1,.28.37s-2.6,6-2.51,6.32S84,16.79,84.55,16.7a.69.69,0,0,1,.51.24,3,3,0,0,1,.46.53,6.34,6.34,0,0,1,.41.6l.18.1.59.36Z"/><path class="cls-3" d="M85.52,17.47l-.27.44A14.33,14.33,0,0,1,83.61,20a10.33,10.33,0,0,1-.79.76s.2-.41.51-1,.78-1.38,1.33-2.23l.4-.59A3,3,0,0,1,85.52,17.47Z"/><path class="cls-3" d="M86.7,18.53a15.17,15.17,0,0,1-1.87,2.41,16.2,16.2,0,0,1,1.28-2.77Z"/><path class="cls-4" d="M74.45,18.28a1.91,1.91,0,0,0-.06.33,8.43,8.43,0,0,0,.45,2.65c.23,1.23,0,2.53.48,3.69a8.42,8.42,0,0,0,1.9,2.48,1.59,1.59,0,0,1,.49.82,1.63,1.63,0,0,1-.16.78c-.29.76-.63,1.53-.9,2.3a4.31,4.31,0,0,1-.72-.85,13.78,13.78,0,0,1,.75-2.42s-2.5-1.92-2.37-3.65a8,8,0,0,0-.15-3.05,14.54,14.54,0,0,1-.5-1.54,1.89,1.89,0,0,1,.28-1.54.42.42,0,0,1,.15-.11A.37.37,0,0,1,74.45,18.28Z"/><path class="cls-3" d="M78.09,22.69a3.34,3.34,0,0,1,2.13,1.78,5.76,5.76,0,0,1,.59,2.79A21.5,21.5,0,0,1,80,25C79.67,24.38,78.83,22.86,78.09,22.69Z"/><path class="cls-5" d="M79.51,31l-3.26-1-1.4-.49s-11,19.11-11.58,22.52c0,0-5.17-1.93-9.88-3.21,0,0-3.19-.77-6.11-1.39L47.41,60l.62.74c7.88,1.37,16.33,2.46,19.47,1.53C74,60.34,81.62,31.75,81.62,31.75Z"/><path class="cls-6" d="M79.51,31c-2.85,7-9.68,28.25-12,29.93C66,62,56.31,61,47.4,59.81V60l.62.74c7.88,1.37,16.33,2.46,19.47,1.53C74,60.34,81.62,31.75,81.62,31.75Z"/><path class="cls-7" d="M65,52.13c1.85-5,9.25-17.2,11.3-22.09l-1.4-.49s-11,19.11-11.58,22.52c0,0-8.82-4.49-16-5.76l0,1.42a44.38,44.38,0,0,1,7,2l9.38,3.54c0,.3,0,.6,0,.79a12.79,12.79,0,0,0,.2,3c0,.17.1.38.27.39s.3-.23.34-.42c.22-1.13.43-2.25.65-3.37a3.69,3.69,0,0,0,2.46.85A6.65,6.65,0,0,0,65,52.13Z"/><path class="cls-8" d="M8.48,177.34l-7-3A15.4,15.4,0,0,0,0,177.21c0,.48,11.76,10.61,11.76,10.61L13.31,186Z"/><path class="cls-9" d="M10.11,173.55,5,169.73c-1.49,1.73-3.92,4.63-4,5.28-.1,1.38,12.26,11,12.26,11C13.66,186.28,11.32,177.83,10.11,173.55Z"/><path class="cls-8" d="M8.77,177a.81.81,0,0,0,.7.29,3.3,3.3,0,0,0,2.73-1,.52.52,0,0,0,.11-.19.33.33,0,0,0-.17-.33.77.77,0,0,0-.39-.09C11.26,175.7,8.22,175.94,8.77,177Z"/><path class="cls-8" d="M9.08,179.2c.12.23.43.28.7.3a3.34,3.34,0,0,0,2.73-1,.34.34,0,0,0,.11-.18.32.32,0,0,0-.17-.34,1,1,0,0,0-.39-.09C11.57,177.89,8.53,178.14,9.08,179.2Z"/><path class="cls-8" d="M60.36,190.23a15.56,15.56,0,0,0,1.33,2.94c.38.28,15.4-3.12,15.4-3.12l-.48-2.39L67,186.35Z"/><path class="cls-9" d="M64.9,182.65,59,184.51c.41,2.26,1.16,6,1.64,6.46,1,.92,16-3.31,16-3.31C77.08,187.57,68.88,184.25,64.9,182.65Z"/><path class="cls-8" d="M66.91,185.91c.26,0,.49-.17.66-.38a3.51,3.51,0,0,0,.93-2.81.43.43,0,0,0-.07-.2.32.32,0,0,0-.37-.07,1,1,0,0,0-.31.27C67.43,183.1,65.75,185.72,66.91,185.91Z"/><path class="cls-8" d="M68.8,187c.25,0,.48-.17.66-.39a3.51,3.51,0,0,0,.93-2.8.6.6,0,0,0-.08-.2.3.3,0,0,0-.36-.07,1,1,0,0,0-.31.27C69.31,184.18,67.64,186.8,68.8,187Z"/><path class="cls-10" d="M51.7,85.92l-13.06-1.7-3.46.28L35.53,131a77.18,77.18,0,0,0-9.87,7.49c-1.69,1.63-11.35,16-17,24.53l7.51,6.34c9.36-9.77,28-29.38,28.88-31.21.74-1.57,4.93-22.13,7.73-37.28C53.34,96.54,52.36,89.69,51.7,85.92Z"/><path class="cls-11" d="M52,129.25,42.87,83.68H28.44c-1.14,5.15-3.88,18.69-1.92,22,2.42,4.1,13.66,28.25,13.66,28.25s.67,12.06,1.51,13.35c.59.91,8.14,18.88,12.57,29.47l9.46-2.23Z"/><path class="cls-10" d="M44.42,146.66c-1-2.16-1.43-15.07-1.43-15.07s-13.4-25.35-14.39-27.83c-.69-1.74.65-13.29,1.52-20.08H28.44c-1.14,5.15-3.88,18.69-1.92,22,2.42,4.1,13.66,28.25,13.66,28.25s.67,12.06,1.51,13.35c.59.91,8.14,18.88,12.57,29.47l1.9-.45C51.77,165.45,45.1,148.07,44.42,146.66Z"/><path class="cls-12" d="M48.18,137.14a2.2,2.2,0,0,0,1.53,1.11,1.65,1.65,0,0,0,1.36-.74,4.46,4.46,0,0,0,.62-1.51,8.18,8.18,0,0,0,.27-3c-.27-2-2.43-4.15-4.33-2.54S47,135.47,48.18,137.14Z"/><polygon class="cls-1" points="59 184.51 55.42 176.14 61.86 174.11 64.9 182.65 59 184.51"/><path class="cls-2" d="M55.42,176.14l1.67,3.9a19.65,19.65,0,0,0,6.21-1.87l-1.44-4.06Z"/><polygon class="cls-1" points="5.02 169.73 9.28 163.38 15.07 168.67 10.11 173.55 5.02 169.73"/><path class="cls-2" d="M9.28,163.38l-2.46,3.67A13,13,0,0,0,12,171.73l3.11-3.06Z"/><polygon class="cls-12" points="9.56 160.35 7.8 163.2 15.8 170.31 19.05 168.07 9.56 160.35"/><polygon class="cls-12" points="52.01 173.36 63.72 170.31 64.63 174.32 52.92 177.92 52.01 173.36"/><path class="cls-13" d="M20.81,53.56S6.62,61.14,8.12,71.29s5.07,10.17,5.07,10.17L20.81,73l6.28-14.69Z"/><path class="cls-14" d="M24.94,55S5.05,81.27,18.72,95.82,38,94.26,38,94.26L35.82,66.18Z"/><path class="cls-5" d="M50.58,80.3S49,63.61,49.92,61.85c2.68-5.2,3.19-12.22-.27-16.72a10.42,10.42,0,0,0-1.52-1.6,26.6,26.6,0,0,0-2.49-1.86,14.9,14.9,0,0,0-3-1.58,7.94,7.94,0,0,0-.81-.25h0a4.94,4.94,0,0,0-1.24-.18H33.62s-.87.2-2,.56c-.27.08-.57.18-.87.29h0A20.79,20.79,0,0,0,27.86,42c-.44.26-.88.53-1.3.8h0l-.12.08,0,0-.37.25h0a6.09,6.09,0,0,0-1.66,1.47,12.25,12.25,0,0,0-.68,2.65,23.06,23.06,0,0,0,.11,8c.38,2,.84,4.18,1.32,6.44,1.79,8.37,3.93,17.58,3.88,19.66,0,0-6,12.25-5.83,17.92,0,0,24.84,4.15,31-1.23C54.14,98,52.31,83.71,50.58,80.3Z"/><path class="cls-15" d="M23.1,99.26a5.82,5.82,0,0,0-.31,4.56s24.16,2.31,32-1.64A7.39,7.39,0,0,0,54.14,98S26.4,97.35,23.1,99.26Z"/><path class="cls-6" d="M47.27,62.78l-.7,0-1.88-.12a19.14,19.14,0,0,0-5.9.39l-1.68.47a15.4,15.4,0,0,1-1.66.35,12.39,12.39,0,0,1-2.87.09,4.46,4.46,0,0,1-1.12-.21,2.41,2.41,0,0,1-.77-.39,1.72,1.72,0,0,1-.36-.39l-.09-.15.13.11a1.64,1.64,0,0,0,.43.24,3.56,3.56,0,0,0,1.76.1,22.71,22.71,0,0,0,2.65-.54c.49-.14,1-.29,1.52-.48s1.09-.38,1.7-.54A10.11,10.11,0,0,1,42,61.4a16.33,16.33,0,0,1,2.81.54c.77.22,1.38.44,1.81.59S47.27,62.78,47.27,62.78Z"/><path class="cls-8" d="M49.65,45.13c-1.52,2.09-2.69,5.41-9.08,5.92-7.4.58-12.12-6.44-12.71-9.09a20.79,20.79,0,0,1,2.86-1.43h0c.3-.11.6-.21.87-.29,1.13-.36,2-.56,2-.56h6.93a4.94,4.94,0,0,1,1.24.18h0a7.94,7.94,0,0,1,.81.25,14.9,14.9,0,0,1,3,1.58,26.6,26.6,0,0,1,2.49,1.86A10.42,10.42,0,0,1,49.65,45.13Z"/><path class="cls-16" d="M50.14,34.53a5.31,5.31,0,0,0,1,5.3A9.22,9.22,0,0,1,47,37.17a3.46,3.46,0,0,0-.23,2.62,5.53,5.53,0,0,1-3.93-2.93l-.94,2.36a10.72,10.72,0,0,0-.62-3.76l-.12-.34a6.45,6.45,0,0,0-.58.31A5.14,5.14,0,0,0,38.25,39a4.92,4.92,0,0,1-3.86-3.56l-2,3.41a5.5,5.5,0,0,0-1.61-3.29,3.17,3.17,0,0,0-.11,3.34,4.25,4.25,0,0,1-3.34-3.65A5.43,5.43,0,0,1,25,39.46c1.15-1.6-1.57-3.77-.82-5.58-1,.66-.92,2.09-1,3.27s-.72,2.69-1.9,2.52c.57-1.28-.21-2.72-.84-4-.45-.88-.05-2.72.59-4.05a23.4,23.4,0,0,0,1.77-5c.24-1.11.53-2.48.85-4.15.21-1.11.44-2.34.68-3.72a15.48,15.48,0,0,1,5.17-9,16,16,0,0,1,4-2.61h0c4.37,0,8.94,1.87,12.84,3.84.5.25,1,.51,1.48.8a6.8,6.8,0,0,1,1.4,1.1,6,6,0,0,1,1.12,1.71A12.36,12.36,0,0,1,51.2,17c.06.28.11.56.17.84a69.81,69.81,0,0,1,1.17,10c.11,2.34.55,9.78,1.74,11.8a8.6,8.6,0,0,1-3.2-2.86C50.3,35.5,50.34,34,50.14,34.53Z"/><path class="cls-17" d="M39.56,35.26a8.51,8.51,0,0,0,1,.17A5.14,5.14,0,0,0,38.25,39a4.92,4.92,0,0,1-3.86-3.56l-2,3.41a5.5,5.5,0,0,0-1.61-3.29,3.17,3.17,0,0,0-.11,3.34,4.25,4.25,0,0,1-3.34-3.65A5.43,5.43,0,0,1,25,39.46c1.15-1.6-1.57-3.77-.82-5.58-1,.66-.92,2.09-1,3.27s-.72,2.69-1.9,2.52c.57-1.28-.21-2.72-.84-4-.45-.88-.05-2.72.59-4.05a23.4,23.4,0,0,0,1.77-5c.24-1.11.53-2.48.85-4.15.21-1.11.44-2.34.68-3.72a15.48,15.48,0,0,1,5.17-9c-.35.75-1,1.57-1.24,2a30.49,30.49,0,0,0-1.6,3.82c-.53,1.5-1,3-1.35,4.57-1.16,4.68-1.88,9.49-3.49,14a9.11,9.11,0,0,0,3.32-3,9.6,9.6,0,0,0,.95,3.28c.25-.87.49-1.74.73-2.62.61.75,1.22,1.49,1.82,2.24a6.06,6.06,0,0,1,.47-2.27,9.72,9.72,0,0,1,2.16,2.32,4.27,4.27,0,0,0,.38-1.79C34,34.08,36.8,34.69,39.56,35.26Z"/><path class="cls-17" d="M50.14,34.53a5.31,5.31,0,0,0,1,5.3A9.22,9.22,0,0,1,47,37.17a3.46,3.46,0,0,0-.23,2.62,5.53,5.53,0,0,1-3.93-2.93l-.94,2.36a10.72,10.72,0,0,0-.62-3.76,3.21,3.21,0,0,0,.62-.1,1.71,1.71,0,0,0,1.32-1.71l1.35,2c.55-.88,1.09-1.77,1.64-2.66a9.13,9.13,0,0,0,2.3,2.61,5.82,5.82,0,0,1,1-3.23,7.66,7.66,0,0,0,3,2.21q-1-10-2.09-20A12.36,12.36,0,0,1,51.2,17c.06.28.11.56.17.84a69.81,69.81,0,0,1,1.17,10c.11,2.34.55,9.78,1.74,11.8a8.6,8.6,0,0,1-3.2-2.86C50.3,35.5,50.34,34,50.14,34.53Z"/><path class="cls-1" d="M45.64,41.67A8.36,8.36,0,0,1,40,47.42c-4.94,1.66-8.19-4.57-9.22-6.91,1.51-.53,2.86-.84,2.86-.84h6.94a5.15,5.15,0,0,1,1.23.17h0c.25.07.52.15.82.26A14.4,14.4,0,0,1,45.64,41.67Z"/><path class="cls-1" d="M39.71,46.47l-6.1-6.8c0-1,.1-1.39.19-3.89.1-2.78.2-5.38.2-5.38l7.84,3.1a18.54,18.54,0,0,0-1.4,6.32A50.32,50.32,0,0,1,39.71,46.47Z"/><path class="cls-2" d="M41.84,33.5a18.54,18.54,0,0,0-1.4,6.32c-.25.11-.49.2-.72.28-.91.32-3.83-2.28-5.92-4.32.1-2.78.2-5.38.2-5.38Z"/><path class="cls-1" d="M50.07,24.18c-.16.72-.36,1.48-.61,2.28,0,0,.35,3.93-.06,4.81s-3.06,6.37-5.83,6c-2.32-.28-8-3.68-10-5.7a2.29,2.29,0,0,1-.68-1c-.27-1.56-1.2-8.43-1.29-9C31.41,20,30.75,8.22,45,11.51a6.86,6.86,0,0,1,5.18,5.15A17.25,17.25,0,0,1,50.07,24.18Z"/><path class="cls-4" d="M49.46,26.46s.35,3.93-.06,4.81-3.06,6.37-5.83,6c-2.32-.28-8-3.68-10-5.7,2.42,1.68,8.85,5.95,10.73,5.29,2.34-.81,5-6,4.93-6.49s-.2-3.87-.2-3.87.47-1.06,1-2.35C49.91,24.9,49.71,25.66,49.46,26.46Z"/><path class="cls-4" d="M33.57,30.4a5.52,5.52,0,0,1-3.8-2.1,4.47,4.47,0,0,1-.37-.56c-.52-.93-.66-4.15.65-4.9.93-.52,1.6.24,1.92.74h0a2.44,2.44,0,0,1,.21.38Z"/><path class="cls-1" d="M33.57,30.4a5.52,5.52,0,0,1-3.8-2.1,2.43,2.43,0,0,1-.15-.26c-.52-.93-.66-4.14.65-4.89a1.27,1.27,0,0,1,1.7.43h0a2.44,2.44,0,0,1,.21.38Z"/><path class="cls-2" d="M29.64,25.4a1.3,1.3,0,0,0,.06.78,6.4,6.4,0,0,0,2.47,2.67,2.68,2.68,0,0,1-.36-1.69c0-.2.06-.4.07-.6C31.88,25.75,30,23.88,29.64,25.4Z"/><path class="cls-3" d="M32.69,29.16l-.06,0-.17-.1a2.22,2.22,0,0,1-.5-.46,2,2,0,0,1-.42-.85,1.77,1.77,0,0,1,.13-1.14l.07-.14,0,0s0,0,0,0h0v0l0-.06-.07-.12c-.1-.15-.2-.3-.31-.44a4.29,4.29,0,0,0-.33-.38,3.06,3.06,0,0,0-.33-.31.67.67,0,0,0-.34-.14.49.49,0,0,0-.28,0,.31.31,0,0,0-.13.12.18.18,0,0,0,0,.05.09.09,0,0,1,0-.06.24.24,0,0,1,.11-.14.55.55,0,0,1,.32-.1.79.79,0,0,1,.44.12,2.78,2.78,0,0,1,.41.29,4.43,4.43,0,0,1,.39.37,3.38,3.38,0,0,1,.37.46l.08.12,0,.07,0,.09,0,.06,0,.07-.06.09-.06.12a1.93,1.93,0,0,0-.17,1,2.16,2.16,0,0,0,.28.81,1.81,1.81,0,0,0,.39.5.64.64,0,0,0,.13.12Z"/><path class="cls-17" d="M51.37,21.35s-1.83-2.44-2.84-1.47S48,21,48,21Z"/><path class="cls-17" d="M36.72,21.77s4.07-3.11,5.14-1.48c.63.94,0,1.37,0,1.37Z"/><path class="cls-9" d="M37.3,25.29l.22-.07a4.75,4.75,0,0,1,.57-.16,7.14,7.14,0,0,1,1.77-.18,7.5,7.5,0,0,1,1.77.24,5.54,5.54,0,0,1,.59.18l.22.08a.65.65,0,0,0-.1-.18,2,2,0,0,0-.39-.45A3.39,3.39,0,0,0,39.83,24a3.1,3.1,0,0,0-2.08.7,1.92,1.92,0,0,0-.36.43A1.11,1.11,0,0,0,37.3,25.29Z"/><path class="cls-9" d="M50.6,25.4l-.13-.06-.34-.13a3.61,3.61,0,0,0-2.06,0l-.34.13-.13.06a.75.75,0,0,1,0-.14,2.57,2.57,0,0,1,.23-.33,1.64,1.64,0,0,1,2.45,0,1.46,1.46,0,0,1,.22.34A.58.58,0,0,1,50.6,25.4Z"/><path class="cls-2" d="M44.22,29a2,2,0,0,0-.89-.24A3,3,0,0,0,45,30.31a.47.47,0,0,0,.17,0,.39.39,0,0,0,.2-.08,3.4,3.4,0,0,0,1-.9.67.67,0,0,0,.13-.25c.07-.3-.13-.23-.31-.16a2.87,2.87,0,0,1-1.94,0Z"/><path class="cls-3" d="M45,30.14c.18-.17.39-.3.58-.46a4.84,4.84,0,0,0,.63-.65c-1-.67-1-1.69-.92-2.84a3.51,3.51,0,0,1,.42-1.49A4,4,0,0,1,46.2,24c.1-.1.2-.2.31-.29a1.06,1.06,0,0,1,.33-.18,1.59,1.59,0,0,0-.15.21c-.14.19-.29.36-.41.56A5.2,5.2,0,0,0,46,25a4.3,4.3,0,0,0-.29,1.37,3.45,3.45,0,0,0,.22,1.35,2.65,2.65,0,0,0,1,1.26l-.73.83a3.39,3.39,0,0,1-.56.44,1.2,1.2,0,0,1-.65.26.37.37,0,0,1-.21-.06l.11-.09s0,0,.05-.05A.8.8,0,0,1,45,30.14Z"/><path class="cls-3" d="M43.33,33.13a2.84,2.84,0,0,0,2.37.07,1.25,1.25,0,0,1-1.09.59A2,2,0,0,1,43.33,33.13Z"/><path class="cls-3" d="M46.75,32.74a7.12,7.12,0,0,0-6.55-.9,10.44,10.44,0,0,1,3.57,0A8.24,8.24,0,0,1,46.75,32.74Z"/><path class="cls-2" d="M47.89,29.39c.15.42,1,.47,2,.11s1.6-1,1.44-1.4-1.05-.46-2-.11S47.73,29,47.89,29.39Z"/><path class="cls-2" d="M35.89,27.45c-.17.63.87,1.44,2.31,1.81s2.73.17,2.9-.46-.87-1.44-2.31-1.81S36.05,26.82,35.89,27.45Z"/><path class="cls-16" d="M51.21,17.43c0,.13,0,.26,0,.4l-.06,1.08c0,.13-.14.82,0,.91a23.2,23.2,0,0,1-4.18-5.74,3.9,3.9,0,0,1-.35-1.42,9.8,9.8,0,0,1-1.87,2.77,10.4,10.4,0,0,1-1.38,1.1,12.28,12.28,0,0,0-1.43.8,5.3,5.3,0,0,0,1.64-2.77c-1.91,2.77-4.94,4.56-8.06,5.82A5.59,5.59,0,0,0,36.93,18a17.65,17.65,0,0,1-7.46,5.53,6,6,0,0,1-1-1.69c-.11-.26-.22-.55-.32-.87a.19.19,0,0,1,0-.07,9,9,0,0,1-.33-1.55A14.19,14.19,0,0,1,29,12a9.64,9.64,0,0,1,4.52-4.85h0A10.16,10.16,0,0,1,39.23,6a17.34,17.34,0,0,1,5.36,1.49c.5.22,2.28,1.19,2.28,1.19a6,6,0,0,1,2.21.59,5.17,5.17,0,0,1,1.82,3.49c.05.24.08.48.11.72a22,22,0,0,1,.16,2.81c0,.24,0,.48,0,.71S51.21,17.3,51.21,17.43Z"/><path class="cls-16" d="M35.07,25.8c-.06-.16-.13-.38-.25-.65a5.43,5.43,0,0,0-.48-.91,4,4,0,0,0-.85-1,4.1,4.1,0,0,0-1.14-.64,5.28,5.28,0,0,0-1-.25l-.34,0-.22-.16.09.14H30.4l.63.3.38.63a12.43,12.43,0,0,1,1.18,2.52,17.55,17.55,0,0,1,.5,2.76c0,.38.08.68.11.89s0,.33,0,.33l.09-.32c0-.21.13-.51.2-.88a8.29,8.29,0,0,0,.15-1.35,5.87,5.87,0,0,0-.23-1.7A5.12,5.12,0,0,0,32.68,24a7,7,0,0,0-.87-1,7.61,7.61,0,0,1,1.24.8,11.5,11.5,0,0,1,1.48,1.54l.44.51.17.19Z"/><path class="cls-16" d="M33.36,22.23a27.58,27.58,0,0,0,7.84-4.67,3.26,3.26,0,0,1-1,1.38,11.46,11.46,0,0,0,6.12-4.56,4.81,4.81,0,0,0,.94-2.45,1,1,0,0,0-.06-.42,1,1,0,0,0-.57-.5,4.5,4.5,0,0,0-3-.14,10.28,10.28,0,0,0-2.79,1.35,11,11,0,0,0-2.13,1.64c-1.21,1.25-1.38,2.63-2,4.15A10.45,10.45,0,0,1,33.36,22.23Z"/><path class="cls-16" d="M44.18,22.59A4.68,4.68,0,0,0,45.88,21,12.81,12.81,0,0,0,48,15.57a5.34,5.34,0,0,0-.38-3.31c-.31-.55-1.47-1.49-2-.57-.29.56.39,1.83.5,2.42a11.15,11.15,0,0,1-.44,5.61A10.61,10.61,0,0,1,44.18,22.59Z"/><path class="cls-17" d="M47.89,11.74l-.84-.18a7.06,7.06,0,0,1,.11,2,9.61,9.61,0,0,0-1.66-2.51A9.7,9.7,0,0,1,42.05,14a7,7,0,0,0,.57-4.31,18.1,18.1,0,0,1-6.4,5.61,7.6,7.6,0,0,0,0-2.89,22,22,0,0,1-8.07,8.52A.33.33,0,0,1,28,21l.08-.13a8.73,8.73,0,0,0,1-3.2,14.89,14.89,0,0,1-5.33,4.81c.21-1.11.44-2.34.68-3.72A15.32,15.32,0,0,1,26,14.25a16.91,16.91,0,0,1,7.6-7.14h0A10.16,10.16,0,0,1,39.23,6a17.34,17.34,0,0,1,5.36,1.49l.18.09c.66.32,2.1,1.1,2.1,1.1a6,6,0,0,1,2.21.59,5.17,5.17,0,0,1,1.82,3.49A15.78,15.78,0,0,0,47.89,11.74Z"/><path class="cls-18" d="M44.87,9.28A14.59,14.59,0,0,0,39,7.93a16.75,16.75,0,0,1-2,2,2.85,2.85,0,0,0,0-1.71,15.93,15.93,0,0,1-6.5,4.7,6.43,6.43,0,0,0,1.13-2.09A12.25,12.25,0,0,1,26,14.25a16.91,16.91,0,0,1,7.6-7.14h0A10.16,10.16,0,0,1,39.23,6a17.34,17.34,0,0,1,5.36,1.49l.18.09c-.32.1-.65.21-1,.33C44.16,8.39,44.51,8.84,44.87,9.28Z"/><path class="cls-18" d="M43.63,5.44a4.42,4.42,0,0,0-.65-2,4.54,4.54,0,0,0-2.67-2.24,5.49,5.49,0,0,1,4.62,2.05,2.82,2.82,0,0,1,0,3.39,3.31,3.31,0,0,1-.8.59,4.08,4.08,0,0,1-1.72.51C43,7,43.68,6.61,43.63,5.44Z"/><path class="cls-5" d="M8,76.77s6.05-24.8,14.5-30.3c0,0,5.24,14.26,4.58,16.68s-6.77,12.7-6.77,12.7Z"/><path class="cls-13" d="M20.81,47.25s2.42-3.7,4.67-4.16c0,0,9.25,33.67-4.67,39.38C20.81,82.47,31,69.86,20.81,47.25Z"/><path class="cls-13" d="M49.65,45.13s2.88,1.73,3,3.94L50.3,77S48.21,48.82,49.65,45.13Z"/><polygon class="cls-19" points="24.47 83.78 25.64 83.88 26.75 85.26 46.8 87.19 46.98 82.97 48.05 58.16 45.78 56.43 25.69 55.57 24.47 83.78"/><polygon class="cls-8" points="25.64 83.88 26.3 84.71 27.63 86.36 45.7 87.14 45.88 83.09 46.92 58.77 44.89 57.09 26.82 56.31 25.64 83.88"/><rect class="cls-20" x="22.85" y="62.18" width="29.06" height="20.12" transform="translate(-36.4 106.47) rotate(-87.54)"/><rect class="cls-8" x="36.05" y="57.36" width="3.35" height="13.31" transform="translate(-27.85 98.96) rotate(-87.54)"/><polygon class="cls-21" points="25.01 84.12 26.14 84.44 26.96 86.01 46.25 91.8 47.25 87.71 53.13 63.57 51.25 61.44 31.7 56.67 25.01 84.12"/><polygon class="cls-8" points="26.14 84.44 26.63 85.38 27.61 87.26 45.19 91.54 46.14 87.61 51.91 63.95 50.25 61.91 32.67 57.63 26.14 84.44"/><rect class="cls-22" x="25.39" y="65.25" width="29.06" height="20.12" transform="translate(-42.7 96.25) rotate(-76.3)"/><rect class="cls-8" x="40.19" y="60.66" width="3.35" height="13.31" transform="translate(-33.44 92.04) rotate(-76.3)"/><path class="cls-5" d="M38.8,75.91l-.29,4.27-2,.38c-4.29.76-14.55,2.38-21.58,1.7-4.25-.41-7.32-1.65-7.18-4.43,0,0,0-2.22,3-4.3h0a13.26,13.26,0,0,1,1.95-1.12c3.87-1.83,18.09,1.46,23.76,2.89h0Z"/><path class="cls-7" d="M36.52,80.56c-4.29.76-14.55,2.38-21.58,1.7,7.88-.8,21.5-3.74,21.5-3.74Z"/><path class="cls-23" d="M51.55,74.58C51.49,74,42.24,73,42.24,73a6.61,6.61,0,0,0,2.55-3.52v0a.37.37,0,0,0,0-.37.3.3,0,0,0-.16-.08,1.86,1.86,0,0,0-1.49.39A12.89,12.89,0,0,0,42,70.43a8.12,8.12,0,0,1-2.65,1.4c-1.6.6-2.27,3.61-2.27,3.61l-.59,0V80.2l2.07,0,1.08.76c.84.45,9.76.54,9.93,0a4.05,4.05,0,0,0,.12-.5c0-.26.06-.51.08-.67a1.57,1.57,0,0,1,0-.2,6.34,6.34,0,0,0,.37-.61,3.47,3.47,0,0,0,.28-.63.69.69,0,0,0,0-.55,4,4,0,0,0-1.33-.53c-1.76-.52-4.6-1.16-4.44-1.31s6.65-.38,6.65-.38a1.37,1.37,0,0,0,.22-.4A1.34,1.34,0,0,0,51.55,74.58Z"/><path class="cls-24" d="M50.38,77.75a4,4,0,0,0-1.33-.53c-.38.39-.68.92-1,1.25a5.21,5.21,0,0,1-2,1.09,7.89,7.89,0,0,1-3.77-.09c-1.24-.27-2.46-.66-3.72-.84a13.8,13.8,0,0,0-2-.11l.07,2,2-.38,1.08.76c.84.45,9.76.54,9.93,0a4.05,4.05,0,0,0,.12-.5c0-.26.06-.51.08-.67a1.57,1.57,0,0,1,0-.2,6.34,6.34,0,0,0,.37-.61,3.47,3.47,0,0,0,.28-.63A.69.69,0,0,0,50.38,77.75Z"/><path class="cls-25" d="M50.1,78.93l-.51-.06a14.43,14.43,0,0,1-2.51-.61c-.59-.2-.95-.36-1-.38s.45,0,1.07.05,1.56.12,2.54.26l.69.11A3.47,3.47,0,0,1,50.1,78.93Z"/><path class="cls-25" d="M49.64,80.41a15.13,15.13,0,0,1-2.92-.66,15.59,15.59,0,0,1,3,0C49.7,79.9,49.68,80.15,49.64,80.41Z"/><path class="cls-26" d="M44.75,69.05a.3.3,0,0,0-.16-.08,1.86,1.86,0,0,0-1.49.39,14.55,14.55,0,0,0-1.16,1.07,8,8,0,0,1-2.64,1.4c-1.6.6-2.27,3.61-2.27,3.61l-.59-.14v1.32h.08a1.61,1.61,0,0,0,.76-.18,1.54,1.54,0,0,0,.53-.78,8.41,8.41,0,0,1,1.42-2.72c.84-.88,2.09-1.23,3.08-1.94a8.27,8.27,0,0,1,2.17-1.5l.32-.08A.37.37,0,0,0,44.75,69.05Z"/><path class="cls-6" d="M36.52,76.62s-16.71-4.59-21-3.31L21,72.22l4.31-8,0,3-3,5.09s10.75,1.7,14.11,2.9Z"/><path class="cls-15" d="M34.77,73.48s-.66,7.92,0,8.48,2.6-.65,2.6-.65-.06-7.28-.21-7.43A15.87,15.87,0,0,0,34.77,73.48Z"/><path class="cls-27" d="M16.77,3.48c.8,1.06,2.23,1.34,3.49,1.75a12.86,12.86,0,0,1,5,2.95A19.37,19.37,0,0,0,23,3.47C21.94,2,20.24.27,18.31,0S15.68,2,16.77,3.48Z"/><path class="cls-27" d="M15.81,11.94c1.06.14,2-.53,3-1a10.57,10.57,0,0,1,4.5-1.18,15.59,15.59,0,0,0-4-1.38,6.09,6.09,0,0,0-4.63.74C13.42,10.08,14.36,11.75,15.81,11.94Z"/><path class="cls-27" d="M24.88,1.35a3.57,3.57,0,0,0,1,1.84A6.86,6.86,0,0,1,27.25,6a10.54,10.54,0,0,0,.43-2.79A4.16,4.16,0,0,0,26.62.27C25.81-.44,24.83.38,24.88,1.35Z"/><path class="cls-15" d="M72.42,32.08l2.43-3.23s7.81,1.47,8,2.57-1.2,3.4-1.2,3.4Z"/></g></g></svg>