<svg xmlns="http://www.w3.org/2000/svg" viewBox="0 0 102.89 257.91"><defs><style>.cls-1{fill:#91616a;}.cls-2{fill:#d65c5c;}.cls-3{fill:#ead18c;}.cls-4{fill:#f2af97;}.cls-5{fill:#413339;}.cls-6{fill:#b23f3f;}.cls-7{fill:#fff;}.cls-8{fill:#eff2f7;}.cls-9{fill:#37354c;}.cls-10{fill:#5bb59b;}.cls-11{fill:#e08d73;}.cls-12{fill:#823f4a;}</style></defs><title>SchoolGirl</title><g id="Layer_2" data-name="Layer 2"><g id="OBJECTS"><path class="cls-1" d="M33,27.05c-1.47,2-3.31,4-3.63,6.44A8.7,8.7,0,0,0,30.28,38c2.52,5.79,8,9.92,14.08,11.81s12.53,1.75,18.78.8c4.3-.65,8.78-1.81,11.88-4.87A6,6,0,0,0,77,42a6.41,6.41,0,0,0-.32-2.08c-1-3.29-3.12-6.11-4.43-9.29-1.67-4.06-2-8.53-2.7-12.86S67.43,9,64.15,6.06a13.89,13.89,0,0,0-11.64-3A20.21,20.21,0,0,0,38.89,13.2C36.47,17.72,36.15,22.75,33,27.05Z"/><path class="cls-2" d="M35.17,48.14s-9.32,11.15-11,20.78S19,106.43,22.56,111.49s7.67,5.07,8.77,5.07,51.81,3.55,51.54-4.56-5.21-61.57-5.21-61.57S55.73,39,35.17,48.14Z"/><path class="cls-3" d="M83.94,61.34C81.37,56.47,79,52.11,77.6,49.51a6.62,6.62,0,0,0-4.18-3.26C68.63,45,58.86,42.73,53.06,42.63c-7.89-.14-16.34,2.14-20,3a6.53,6.53,0,0,0-3.69,2.42C22.91,56.68-4.27,93.27.58,96.51,4.34,99,12.15,99.59,12.15,99.59S18.61,89,18.61,88.22c0-.48,6.37-11.87,11.14-20.67-1.83,18-2.63,35.28-2.63,35.28H76.45S76.53,89.57,75,72.27a31.34,31.34,0,0,0,2,5"/><path class="cls-4" d="M28.59,119.57s4.67,58.33,6.34,64.33,8.65,58.48,8.65,58.48a18.29,18.29,0,0,0,4.68.19c1.33-.33,4.33-47.67,1-59-1.44-4.89-.33-59-.33-59l7.66-.33.67,57s-.89,15.88-.67,20c.67,12,5.34,41.33,5.34,41.33s4.33,1.33,4.66-.67,4.34-58.33,4.34-58.33l4.33-74-42.67,2Z"/><path class="cls-4" d="M83.48,61.34c9.85,13.86,22.63,37.47,18.67,37.87-9.41.94-11.58-1.06-11.58-1.06s-2-7.28-4.45-10.82C85.21,86,79.49,79,75.25,71.22,79.62,69.36,82.46,63.7,83.48,61.34Z"/><path class="cls-5" d="M27.11,102.87l-7.32,49.31s8.31,6.65,37.14,6.65,32.16-7.76,32.16-7.76l-12.64-48.2Z"/><path class="cls-6" d="M43.22,240.21s1.36-3.14-.42-3.39a3,3,0,0,0-2.71.84l-4.24,4.92-2.21,3.56,3.4-1.61Z"/><path class="cls-2" d="M50.09,238.6s-1.38,3.48-2.88,2.88c-.85-.34-2.37-3.14-3.48-2.71s-5.34,3.64-6.95,4.49,3.31-5.6,3.31-5.6-4.16,4.41-5.6,5.18-13.65,4-13.9,7.8l.21,2.46s4,3.64,13.44.42S49,249.7,50.69,249,51.45,238.68,50.09,238.6Z"/><path class="cls-7" d="M32.29,252.25c4.49-.77,12-4.07,14.84-4.41a17.57,17.57,0,0,0,4.42-1.25c-.1,1.27-.37,2.24-.86,2.44-1.7.67-7,1.27-16.45,4.49s-13.44-.42-13.44-.42l-.21-2.46C21.69,252.59,27.79,253,32.29,252.25Z"/><path class="cls-8" d="M40.77,242.71a.47.47,0,0,1-.42-.24c-.25-.46-1.1-1.67-2-1.84a1.1,1.1,0,0,0-.95.28.46.46,0,0,1-.66-.06.48.48,0,0,1,.06-.67,2.06,2.06,0,0,1,1.73-.48c1.49.29,2.58,2.23,2.63,2.32a.46.46,0,0,1-.19.63A.46.46,0,0,1,40.77,242.71Z"/><path class="cls-8" d="M39.33,244.07a.49.49,0,0,1-.42-.24c-.25-.46-1.1-1.68-2-1.85a1.11,1.11,0,0,0-1,.29.47.47,0,0,1-.66-.07.46.46,0,0,1,.06-.66,2.05,2.05,0,0,1,1.73-.48c1.49.29,2.58,2.23,2.63,2.31a.47.47,0,0,1-.19.64A.46.46,0,0,1,39.33,244.07Z"/><path class="cls-8" d="M37.54,245a.49.49,0,0,1-.41-.24c-.25-.46-1.1-1.68-2-1.84a1.1,1.1,0,0,0-.95.28.49.49,0,0,1-.67-.07.47.47,0,0,1,.07-.66,2.05,2.05,0,0,1,1.73-.48c1.49.29,2.58,2.23,2.63,2.31a.47.47,0,0,1-.19.64A.46.46,0,0,1,37.54,245Z"/><path class="cls-8" d="M35.68,245.85a.46.46,0,0,1-.41-.24c-.26-.46-1.11-1.68-2-1.85a1.11,1.11,0,0,0-1,.29.47.47,0,0,1-.59-.73,2,2,0,0,1,1.72-.48c1.5.29,2.58,2.23,2.63,2.31a.47.47,0,0,1-.18.64A.49.49,0,0,1,35.68,245.85Z"/><path class="cls-6" d="M70.69,240.19a2.64,2.64,0,0,0-2.47-1.42,5.5,5.5,0,0,0-1.64.31c-1.09.46-1.09,2.93-.73,3.38S71.06,251,71.06,251s4.76-1.56,4.67-2.2-4-6.4-4-6.4S71.24,241.22,70.69,240.19Z"/><path class="cls-2" d="M61.69,241.41s-1.57,5.7-1,8.63c0,0-.1.81,2.83,2.09s4.71,6.52,13,5.7,7.41-2,7.41-2,1-6.29-6.81-8.92c-3.8-1.29-5.74-6.12-5.74-6.12s-1.38-.61-1.11.58S75,247.89,75,247.89l-1.37.26s-3.7-6.89-5.25-7.07-3.66,2.1-4.94,1.74A2.74,2.74,0,0,1,61.69,241.41Z"/><path class="cls-7" d="M76.53,257.83c8.32-.83,7.41-2,7.41-2a7.22,7.22,0,0,0-.13-2.27c-.86.62-3.47,2.11-8.89,2.15-6.85.06-7-3.9-10-4.85a13.75,13.75,0,0,1-4.4-2.43,8.3,8.3,0,0,0,.11,1.63s-.1.81,2.83,2.09S68.21,258.65,76.53,257.83Z"/><path class="cls-7" d="M68.22,243.82a.58.58,0,0,1-.36-.14.56.56,0,0,1-.07-.79,4.88,4.88,0,0,1,2.95-1.71,2.35,2.35,0,0,1,1.78.72.56.56,0,1,1-.79.8,1.24,1.24,0,0,0-.94-.4,3.74,3.74,0,0,0-2.13,1.31A.58.58,0,0,1,68.22,243.82Z"/><path class="cls-7" d="M69.38,245.71a.55.55,0,0,1-.36-.13.56.56,0,0,1-.07-.79,4.93,4.93,0,0,1,3-1.72,2.38,2.38,0,0,1,1.78.73.57.57,0,0,1,0,.8.56.56,0,0,1-.79,0,1.26,1.26,0,0,0-.94-.4,3.81,3.81,0,0,0-2.14,1.31A.57.57,0,0,1,69.38,245.71Z"/><path class="cls-7" d="M71.07,247.29a.53.53,0,0,1-.36-.13.56.56,0,0,1-.07-.79,4.93,4.93,0,0,1,3-1.72,2.42,2.42,0,0,1,1.78.73.57.57,0,0,1-.8.8,1.28,1.28,0,0,0-.93-.4,3.77,3.77,0,0,0-2.14,1.31A.53.53,0,0,1,71.07,247.29Z"/><path class="cls-7" d="M72.49,249a.57.57,0,0,1-.36-.13.56.56,0,0,1-.07-.79,4.93,4.93,0,0,1,3-1.72,2.38,2.38,0,0,1,1.78.73.57.57,0,0,1,0,.8.56.56,0,0,1-.79,0,1.29,1.29,0,0,0-.94-.4,3.74,3.74,0,0,0-2.13,1.31A.57.57,0,0,1,72.49,249Z"/><path class="cls-9" d="M75.61,92.78c-2.89-2-7.84-23.49-8.82-26.87A85.26,85.26,0,0,1,64,42.69c2.52-1,5.33-.22,7.86.75,2.64,9.87,7.49,37.92,7.16,48.12A5,5,0,0,1,75.61,92.78Z"/><polygon class="cls-10" points="66.19 65.69 62.73 62.61 38.25 59.37 32.3 94.1 57.91 97.26 66.19 65.69"/><path class="cls-7" d="M65,66.3a22.08,22.08,0,0,0-2.26-2.48c-.22,0-23.65-3.32-23.65-3.32L33.5,93.42l3,2.41L60,97.41Z"/><rect class="cls-10" x="37.78" y="63.67" width="26.09" height="34.71" transform="translate(89.66 168.43) rotate(-171.86)"/><polygon class="cls-2" points="71.17 71.21 67.72 68.13 43.23 64.89 37.28 99.62 62.89 102.78 71.17 71.21"/><path class="cls-7" d="M70,71.82a22.14,22.14,0,0,0-2.26-2.49c-.22,0-23.65-3.31-23.65-3.31L38.49,98.94l3,2.41,23.43,1.58Z"/><rect class="cls-2" x="42.76" y="69.19" width="26.09" height="34.71" transform="translate(98.8 180.11) rotate(-171.86)"/><path class="cls-4" d="M52.7,31.34h0a5,5,0,0,1,5,5v9.3a5,5,0,0,1-5,5h0a5,5,0,0,1-5-5v-9.3A5,5,0,0,1,52.7,31.34Z"/><path class="cls-11" d="M52.7,29.34h0a5,5,0,0,1,5,5v6.4a17.39,17.39,0,0,1-10,0v-6.4A5,5,0,0,1,52.7,29.34Z"/><circle class="cls-1" cx="52.7" cy="17.35" r="17.35"/><circle class="cls-4" cx="52.7" cy="21.35" r="17.35" transform="matrix(0.99, -0.16, 0.16, 0.99, -2.73, 8.67)"/><path class="cls-4" d="M64.17,22.35a5.22,5.22,0,1,0,5.22-5.22A5.22,5.22,0,0,0,64.17,22.35Z"/><circle class="cls-4" cx="36.51" cy="22.35" r="5.22"/><path class="cls-9" d="M57.58,21.07a1.29,1.29,0,1,0,1.29-1.28A1.28,1.28,0,0,0,57.58,21.07Z"/><path class="cls-9" d="M45.49,21.07a1.29,1.29,0,1,0,1.29-1.28A1.28,1.28,0,0,0,45.49,21.07Z"/><path class="cls-1" d="M63,17.5a6.09,6.09,0,0,0-5.29-1.82l-.15-.74a6.8,6.8,0,0,1,6,2Z"/><path class="cls-1" d="M42.86,17.5,42.32,17a6.84,6.84,0,0,1,6-2l-.15.74A6,6,0,0,0,42.86,17.5Z"/><path class="cls-4" d="M52.58,79.33A6.2,6.2,0,1,0,55.26,71,6.2,6.2,0,0,0,52.58,79.33Z"/><path class="cls-4" d="M19.05,62.21C9.2,76.07-2.78,94.27.58,96.51,4.34,99,12.15,99.59,12.15,99.59S18.61,89,18.61,88.22c0-.4,4.43-8.4,8.67-16.14C22.91,70.22,20.07,64.56,19.05,62.21Z"/><path class="cls-9" d="M26.24,92.78c2.89-2,7.85-23.49,8.83-26.87a85.64,85.64,0,0,0,2.82-23.22c-2.52-1-5.32-.22-7.86.75-2.64,9.87-7.49,37.92-7.15,48.12A5,5,0,0,0,26.24,92.78Z"/><path class="cls-4" d="M53.46,88.74s-40.63-3.62-42.54-.25C7.21,95,7.76,98,12.15,99.59S56.3,94.42,56.3,94.42Z"/><circle class="cls-4" cx="50.76" cy="91.06" r="6.67"/><path class="cls-4" d="M57,73.89s39.23,11.2,39.8,15c1.12,7.44-.48,10-5.13,9.92S52.35,78.17,52.35,78.17Z"/><path class="cls-1" d="M53.4,8.47a19.52,19.52,0,0,1-4.26,4.72c-3.87,3.29-8.75,6-13.79,5.35a21.3,21.3,0,0,1,1.23-6.82,14.13,14.13,0,0,1,7.54-7.2c2.25-1,6.75-2.68,9.23-1.95C56.16,3.39,54.48,6.65,53.4,8.47Z"/><path class="cls-12" d="M47,27.35a6,6,0,0,0,11.76,0Z"/><path class="cls-7" d="M47,27.35a5.92,5.92,0,0,0,.65,1.91h8.12a1.38,1.38,0,0,0,1.38-1.38v-.53Z"/></g></g></svg>