<svg xmlns="http://www.w3.org/2000/svg" viewBox="0 0 104.25 191.96"><defs><style>.cls-1{fill:#fb9988;}.cls-2{fill:#fdbd8e;}.cls-3{fill:#fd7d6f;}.cls-4{fill:#ffdaba;}.cls-5{fill:#007c7e;}.cls-6{fill:#118c8c;}.cls-7{fill:#63ccca;}.cls-8{fill:#ff9300;}.cls-9{fill:#cf691f;}.cls-10{fill:#fff0e7;}.cls-11{fill:#161818;}.cls-12{fill:#749ec2;}.cls-13{fill:#4f83a7;}.cls-14{fill:#a4c3db;}.cls-15{fill:#006060;}.cls-16{fill:#651924;}.cls-17{fill:#7e2426;}.cls-18{fill:#a94739;}.cls-19{fill:#f8b555;}</style></defs><title>SchoolGirl2</title><g id="Layer_2" data-name="Layer 2"><g id="OBJECTS"><path class="cls-1" d="M103.63,38.65a3.53,3.53,0,0,1-1.57,1.51c-1.15.72-2.26,1.57-3.4,2.28l-2.11,2.32-3-2.48-.88-.73,2.1-2.22a15.09,15.09,0,0,1-.24-5.91A20.48,20.48,0,0,0,95,31.09a25.62,25.62,0,0,0-.25-3,.94.94,0,0,1,.15-.66.68.68,0,0,1,.82-.14,1.63,1.63,0,0,1,.64.61.35.35,0,0,1,.05.08,6.35,6.35,0,0,1,1,3.88.88.88,0,0,0,.06.51.76.76,0,0,0,.38.27,4.33,4.33,0,0,0,2.82,0,2.17,2.17,0,0,1,1.17-.17c.55.15.84.76,1,1.3a17.33,17.33,0,0,1,.78,3.33A3.21,3.21,0,0,1,103.63,38.65Z"/><path class="cls-2" d="M96,39.5l-2.41,2.78-.88-.73,2.1-2.22a15.09,15.09,0,0,1-.24-5.91A20.48,20.48,0,0,0,95,31.09a25.62,25.62,0,0,0-.25-3,.94.94,0,0,1,.15-.66.68.68,0,0,1,.82-.14,1.63,1.63,0,0,1,.64.61.35.35,0,0,1,.05.08,1.18,1.18,0,0,0-.56,0c-.46.15-.33.82-.21,1.3a8.42,8.42,0,0,1-.31,3.44A13.31,13.31,0,0,0,96,39.5Z"/><path class="cls-3" d="M99.41,36.94a6.8,6.8,0,0,1-.06,3.14,5.38,5.38,0,0,0,.73-3,3.2,3.2,0,0,0-1.54-2.55,1.47,1.47,0,0,0-.55-.2c.07.37.62.78.83,1.13A5.39,5.39,0,0,1,99.41,36.94Z"/><path class="cls-2" d="M103.78,39a6.91,6.91,0,0,1-3.48.53,3.88,3.88,0,0,1-.43-1.1,4.88,4.88,0,0,1-.12-.55,10.59,10.59,0,0,1-.13-1.3c0-.19,0-.39,0-.58,0-.53,0-1,0-1.53,0-.21,0-.41,0-.6,0-.52.1-1,.15-1.31s.09-.63.09-.63a9.22,9.22,0,0,1,3.76.5,5.74,5.74,0,0,1,.49,1.7A13.62,13.62,0,0,1,103.78,39Z"/><path class="cls-3" d="M102.09,34.16l-.52.11a9.39,9.39,0,0,1-1.16.17,6.72,6.72,0,0,1-.77,0c0-.21,0-.41,0-.6a3.28,3.28,0,0,1,.68-.13,3,3,0,0,1,1.25.2A2.16,2.16,0,0,1,102.09,34.16Z"/><path class="cls-3" d="M101.92,36.19s-.19.07-.48.15a6.54,6.54,0,0,1-1.1.21,5.87,5.87,0,0,1-.72,0c0-.19,0-.39,0-.58a2.74,2.74,0,0,1,.67-.15,3,3,0,0,1,1.19.15A2.31,2.31,0,0,1,101.92,36.19Z"/><path class="cls-3" d="M102.34,38a4.62,4.62,0,0,1-.51.16,6.31,6.31,0,0,1-1.18.21,6.9,6.9,0,0,1-.78,0,4.88,4.88,0,0,1-.12-.55,3.84,3.84,0,0,1,.85-.18,3.45,3.45,0,0,1,1.74.35Z"/><path class="cls-4" d="M104.17,34.11a4.11,4.11,0,0,0-1.17-1,4.75,4.75,0,0,0-1.33-.4,8.73,8.73,0,0,0-1.6-.25l-.24,0c0-.39.09-.63.09-.63a9.22,9.22,0,0,1,3.76.5A5.74,5.74,0,0,1,104.17,34.11Z"/><path class="cls-5" d="M56.11,53.19c-.58,3.7,9.91,9.08,18.4,15.38a4.76,4.76,0,0,0,6.19-.45c4.58-4.6,15.6-19.53,18.19-25.56l-4.88-3-1-.61S80.64,52.66,77.08,57.24c0,0-9.17-9-12.1-11a4.22,4.22,0,0,0-2,1.1C62.23,48,56.39,51.43,56.11,53.19Z"/><path class="cls-6" d="M66,49.36V46.72C70.42,50,77.08,57.24,77.08,57.24,80.64,52.66,93,38.92,93,38.92l1,.61c-2.94,3.65-14.52,17.93-16.42,19,0,0,1.16,5.28.22,4.37s-1.54-4-1.54-4-1.81,2.15-2.09,1.86.71-3.36.71-3.36Z"/><path class="cls-7" d="M90.87,40.56s1.39-2,1.81-2.1,6.92,4.12,6.92,4.4c0,.52-1.37,1.9-1.37,1.9Z"/><path class="cls-8" d="M35.46,52.34s-14.19,7.58-12.7,17.72,5.07,10.18,5.07,10.18l7.63-8.43,6.27-14.68Z"/><path class="cls-9" d="M39.59,53.78S19.7,80.05,33.37,94.59,52.61,93,52.61,93L50.46,65Z"/><polygon class="cls-1" points="55.15 171.4 55.82 180.37 61.47 180.37 61.47 171.4 55.15 171.4"/><path class="cls-2" d="M55.82,180.37h5.65V176.8a23.81,23.81,0,0,1-6-1.28Z"/><polygon class="cls-2" points="37.4 171.88 36.92 175.38 36.52 178.35 31.34 178.14 31.24 174.81 31.14 171.88 37.4 171.88"/><polygon class="cls-1" points="37.4 171.88 36.92 175.38 31.24 174.81 31.14 171.88 37.4 171.88"/><path class="cls-10" d="M55.71,186.63a14.92,14.92,0,0,0,.74,3c.31.33,15.26,0,15.26,0l0-2.31-8.94-3Z"/><path class="cls-11" d="M61.93,180.37H55.46c0,2,0,6.45.39,7,.79,1,15.84-.07,15.84-.07C72.16,187.3,65.38,182.56,61.93,180.37Z"/><path class="cls-10" d="M37.47,187.55c-.35,1.37-3.12,3.37-4.4,4.24a1,1,0,0,1-1.23-.06c-1.11-.93-3.45-3-3.67-4.18a5,5,0,0,1,.3-1.91c.19-.68.46-1.48.76-2.29.92-2.53,2.11-5.21,2.11-5.21l4.6.18s1.07,4,1.46,6.83v0A7.5,7.5,0,0,1,37.47,187.55Z"/><path class="cls-11" d="M37.4,185.15c-.56,1.36-3.12,3.21-4.33,4a1,1,0,0,1-1.23-.06,18,18,0,0,1-3.37-3.48c.19-.68.46-1.48.76-2.29.92-2.53,2.11-5.21,2.11-5.21l5.18.21S37,182.32,37.4,185.15Z"/><path class="cls-10" d="M31.24,182.72c.06.3.37.47.66.57a3.55,3.55,0,0,0,3.21-.12.55.55,0,0,0,.17-.17.41.41,0,0,0-.08-.43,1.11,1.11,0,0,0-.39-.24C34.3,182.13,31,181.36,31.24,182.72Z"/><path class="cls-10" d="M30.91,185.26c.05.3.36.47.65.57a3.55,3.55,0,0,0,3.21-.12.55.55,0,0,0,.17-.17.39.39,0,0,0-.08-.43,1.11,1.11,0,0,0-.39-.24C34,184.67,30.64,183.9,30.91,185.26Z"/><path class="cls-10" d="M62.75,183.86a.75.75,0,0,0,.7-.24,3.22,3.22,0,0,0,1.4-2.42.34.34,0,0,0,0-.2.28.28,0,0,0-.33-.13.88.88,0,0,0-.34.19C63.76,181.35,61.68,183.46,62.75,183.86Z"/><path class="cls-10" d="M64.36,185.21c.23.09.49-.07.69-.23a3.28,3.28,0,0,0,1.41-2.43.65.65,0,0,0,0-.2.32.32,0,0,0-.33-.13.92.92,0,0,0-.35.19C65.36,182.7,63.29,184.82,64.36,185.21Z"/><path class="cls-12" d="M30.44,171.18h8.29c2.13-10.56,5.69-27.74,6.89-30.35,1.76-3.8,7.73-36.52,7.73-36.52l1.89.15s.41,29.83.68,31.35c0,0-2.5,7.38-3.25,11.26-.35,1.79.64,14.76,1.42,24.11h8.67c.79-11.84,2.13-30.47,2.78-32.33.95-2.74,4.87-29.67,3.93-37.43C69,98,68.17,93.15,67.32,88.87c-.4-2-.8-4-1.13-5.55-.07-.3-.13-.6-.19-.88s-.12-.56-.17-.82-.15-.68-.21-1l-.35-1.6H44.13l-.23.46-.06.11-.13.27h0c-.22.45-.53,1.08-.87,1.84,0,.09-.08.18-.13.27l-.52,1.19c0,.09-.08.18-.11.27-.19.43-.38.89-.58,1.37h0l-.42,1.06L40.66,87c-.07.17-.13.34-.19.52h0l0,.07-.06.16c0,.13-.09.26-.13.39s-.09.24-.13.37c-.23.66-.45,1.33-.66,2,0,.13-.09.27-.13.41s-.11.38-.16.56-.18.62-.26.93c-.34,1.24-.64,2.52-.88,3.8,0,.15-.05.29-.08.44l-.09.53-.06.43-.06.38c-.09.67-.16,1.33-.21,2l0,.48c-.27,4.4,0,33.47,0,33.47s-5.64,10.85-6,15.22C31.42,150.66,30.84,162.73,30.44,171.18Z"/><path class="cls-13" d="M30.44,171.18h1.25c.59-9.58,1.42-22.12,1.8-22.49.61-.61,6.9-15.85,6.9-15.85s-1.64-33.88,0-36.76a82.62,82.62,0,0,0,3.37-8.22c.15-.41.3-.82.44-1.22s.34-.93.51-1.38c.29-.82.58-1.61.83-2.33s.47-1.34.66-1.88c.41-1.15.66-1.87.66-1.87l-.71-.11-.17,0H44.13l-.23.46-.06.11-.13.27h0c-.22.45-.53,1.08-.87,1.84,0,.09-.08.18-.13.27l-.52,1.19c0,.09-.08.18-.11.27-.19.43-.38.89-.58,1.37h0l-.42,1.06L40.66,87c-.07.17-.13.34-.19.52h0l0,.07-.06.16c0,.13-.09.26-.13.39s-.09.24-.13.37c-.23.66-.45,1.33-.66,2,0,.13-.09.27-.13.41s-.11.38-.16.56-.18.62-.26.93c-.34,1.24-.64,2.52-.88,3.8,0,.15-.05.29-.08.44l-.09.53-.06.43-.06.38c-.09.67-.16,1.33-.21,2l0,.48c-.27,4.4,0,33.47,0,33.47s-5.64,10.85-6,15.22C31.42,150.66,30.84,162.73,30.44,171.18Z"/><path class="cls-13" d="M67.32,88.87c-6.12,2.69-16.94.66-23.56-1l-1.2-.31-1.23-.34L40.66,87c.11-.31.23-.62.34-.92a1.8,1.8,0,0,0,.08-.21l.32-.81a1.86,1.86,0,0,0,.1-.25h0c.2-.48.39-.94.58-1.37,0,0,0-.08,0-.11l.07-.16c.15-.35.3-.68.44-1a1.67,1.67,0,0,0,.08-.2c0-.09.09-.18.13-.27.34-.76.65-1.39.87-1.84h0l.13-.27.06-.11.23-.46H65.27l.35,1.6c.06.29.13.61.21,1s.11.53.17.82.12.58.19.88C66.52,84.91,66.92,86.83,67.32,88.87Z"/><path class="cls-13" d="M55.88,171.18,54.4,149.09,58,135,57.8,107.1l-2.56-2.64s.41,29.83.68,31.35c0,0-2.5,7.38-3.25,11.26-.35,1.79.64,14.76,1.42,24.11Z"/><path class="cls-14" d="M60,141.2a2.17,2.17,0,0,0,1.14,1.42,1.61,1.61,0,0,0,1.46-.3,4,4,0,0,0,1-1.21,7.31,7.31,0,0,0,1-2.64c.28-1.91-1.19-4.42-3.38-3.47S59.39,139.38,60,141.2Z"/><path class="cls-14" d="M41.46,138.23a1.9,1.9,0,0,0,1,1.25,1.45,1.45,0,0,0,1.31-.27,3.4,3.4,0,0,0,.87-1.05,6.4,6.4,0,0,0,.93-2.32c.25-1.68-1.07-3.87-3-3S40.88,136.64,41.46,138.23Z"/><polygon class="cls-14" points="29.57 170.77 39.52 170.42 39.07 173.26 29.36 173.26 29.57 170.77"/><polygon class="cls-14" points="53.34 170.42 53.73 173.26 63.33 174.07 63.33 170.2 53.34 170.42"/><path class="cls-5" d="M68.78,96.81c-6.2,5.38-31,1.23-31,1.23-.06-2.22.82-5.44,1.91-8.54.53-1.5,1.11-3,1.65-4.29,1.22-2.93,2.27-5.09,2.27-5.09.06-2.08-2.08-11.29-3.87-19.67C39.21,58.2,38.76,56,38.38,54a22.57,22.57,0,0,1-.11-8A11.33,11.33,0,0,1,39,43.4a5.79,5.79,0,0,1,1.66-1.47h0l.37-.24.06,0,.12-.08s0,0,0,0l0,0c.41-.26.85-.54,1.29-.79a19.22,19.22,0,0,1,2.87-1.43l0,0,.87-.29c1.12-.35,2-.55,2-.55H55.2a5.21,5.21,0,0,1,1.23.17h0a7.94,7.94,0,0,1,.81.25,14.44,14.44,0,0,1,3,1.58,25.33,25.33,0,0,1,2.48,1.86,10,10,0,0,1,1.52,1.6c3.46,4.49,2.95,11.52.28,16.72-.9,1.76.66,18.45.66,18.45a9.8,9.8,0,0,1,.57,1.49,58.16,58.16,0,0,1,1.4,6.11C68.11,91.57,68.78,96.81,68.78,96.81Z"/><path class="cls-7" d="M37.74,98a5.87,5.87,0,0,0-.31,4.56s24.17,2.3,32-1.64a7.35,7.35,0,0,0-.63-4.15S41,96.12,37.74,98Z"/><path class="cls-15" d="M61.91,61.56l-.69,0-1.88-.12a18.88,18.88,0,0,0-5.91.39c-.56.14-1.11.32-1.67.47a15.08,15.08,0,0,1-1.67.35,13,13,0,0,1-2.87.09,4.47,4.47,0,0,1-1.11-.21,2.4,2.4,0,0,1-.77-.39,1.79,1.79,0,0,1-.37-.39l-.09-.16.14.12a1.49,1.49,0,0,0,.43.24,3.54,3.54,0,0,0,1.76.1,21.73,21.73,0,0,0,2.65-.55c.49-.13,1-.29,1.51-.47s1.09-.38,1.71-.54a10.08,10.08,0,0,1,3.57-.27,16,16,0,0,1,2.8.54c.78.22,1.39.43,1.81.59S61.91,61.56,61.91,61.56Z"/><path class="cls-10" d="M64.29,43.9c-1.52,2.1-2.68,5.42-9.07,5.92-7.4.59-12.12-6.43-12.72-9.08a19.69,19.69,0,0,1,2.86-1.43l0,0,.87-.29c1.12-.35,2-.55,2-.55H55.2a5.21,5.21,0,0,1,1.23.17h0a7.94,7.94,0,0,1,.81.25,14.68,14.68,0,0,1,3,1.58,26.59,26.59,0,0,1,2.48,1.86A10.83,10.83,0,0,1,64.29,43.9Z"/><path class="cls-16" d="M64.78,33.31a5.34,5.34,0,0,0,1,5.3A9.44,9.44,0,0,1,61.63,36a3.46,3.46,0,0,0-.23,2.62,5.52,5.52,0,0,1-3.93-2.94L56.53,38a10.9,10.9,0,0,0-.61-3.76,3.42,3.42,0,0,0-.13-.34,3.91,3.91,0,0,0-.57.31,5.1,5.1,0,0,0-2.33,3.54A4.92,4.92,0,0,1,49,34.19l-2,3.4a5.46,5.46,0,0,0-1.62-3.28,3.19,3.19,0,0,0-.11,3.34A4.25,4.25,0,0,1,41.94,34a5.44,5.44,0,0,1-2.27,4.24c1.15-1.6-1.57-3.77-.81-5.59-1,.66-.93,2.1-1,3.28s-.72,2.69-1.89,2.52c.57-1.28-.21-2.72-.85-4-.45-.88,0-2.72.59-4.06a23.59,23.59,0,0,0,1.78-5c.24-1.1.52-2.47.84-4.14.22-1.11.45-2.34.69-3.72a15.47,15.47,0,0,1,5.16-9,16.24,16.24,0,0,1,4-2.61h0c4.37,0,8.95,1.86,12.85,3.84.5.25,1,.51,1.47.8a6.8,6.8,0,0,1,1.4,1.1,6.13,6.13,0,0,1,1.13,1.71,12.33,12.33,0,0,1,.78,2.48c.06.28.12.56.17.84a71.14,71.14,0,0,1,1.18,10c.1,2.35.54,9.79,1.74,11.81a8.78,8.78,0,0,1-3.21-2.86C64.94,34.28,65,32.75,64.78,33.31Z"/><path class="cls-17" d="M54.2,34c.33.07.67.13,1,.17a5.1,5.1,0,0,0-2.33,3.54A4.92,4.92,0,0,1,49,34.19l-2,3.4a5.46,5.46,0,0,0-1.62-3.28,3.19,3.19,0,0,0-.11,3.34A4.25,4.25,0,0,1,41.94,34a5.44,5.44,0,0,1-2.27,4.24c1.15-1.6-1.57-3.77-.81-5.59-1,.66-.93,2.1-1,3.28s-.72,2.69-1.89,2.52c.57-1.28-.21-2.72-.85-4-.45-.88,0-2.72.59-4.06a23.59,23.59,0,0,0,1.78-5c.24-1.1.52-2.47.84-4.14.22-1.11.45-2.34.69-3.72a15.47,15.47,0,0,1,5.16-9c-.35.75-1,1.57-1.24,2a32.07,32.07,0,0,0-1.6,3.82c-.52,1.5-1,3-1.34,4.57-1.16,4.68-1.89,9.49-3.5,14a9.21,9.21,0,0,0,3.32-3,9.62,9.62,0,0,0,1,3.28c.24-.87.48-1.75.73-2.62.6.75,1.21,1.49,1.82,2.23a6.15,6.15,0,0,1,.47-2.27A9.78,9.78,0,0,1,46,32.94a4.27,4.27,0,0,0,.37-1.8C48.59,32.86,51.45,33.47,54.2,34Z"/><path class="cls-17" d="M64.78,33.31a5.34,5.34,0,0,0,1,5.3A9.44,9.44,0,0,1,61.63,36a3.46,3.46,0,0,0-.23,2.62,5.52,5.52,0,0,1-3.93-2.94L56.53,38a10.9,10.9,0,0,0-.61-3.76,3.23,3.23,0,0,0,.61-.1,1.69,1.69,0,0,0,1.32-1.71l1.35,2c.55-.89,1.1-1.77,1.64-2.66a9.6,9.6,0,0,0,2.31,2.61,5.82,5.82,0,0,1,1-3.24,7.55,7.55,0,0,0,3,2.22q-1.05-10-2.09-20a12.33,12.33,0,0,1,.78,2.48c.06.28.12.56.17.84a71.14,71.14,0,0,1,1.18,10c.1,2.35.54,9.79,1.74,11.81a8.78,8.78,0,0,1-3.21-2.86C64.94,34.28,65,32.75,64.78,33.31Z"/><path class="cls-2" d="M60.29,40.45a8.4,8.4,0,0,1-5.67,5.75c-4.95,1.65-8.2-4.57-9.22-6.91,1.51-.53,2.86-.84,2.86-.84h6.93a4.77,4.77,0,0,1,1.24.17h0a7.94,7.94,0,0,1,.81.25A14.81,14.81,0,0,1,60.29,40.45Z"/><path class="cls-2" d="M54.35,45.25l-6.09-6.8c0-1,.09-1.39.18-3.89.1-2.78.2-5.39.2-5.39l7.85,3.1a18.41,18.41,0,0,0-1.4,6.33A51.09,51.09,0,0,1,54.35,45.25Z"/><path class="cls-1" d="M56.49,32.27a18.41,18.41,0,0,0-1.4,6.33l-.72.28c-.91.32-3.84-2.28-5.93-4.32.1-2.78.2-5.39.2-5.39Z"/><path class="cls-2" d="M64.72,23c-.16.72-.37,1.48-.62,2.28,0,0,.35,3.93-.06,4.81s-3.05,6.37-5.83,6c-2.32-.29-8-3.68-10-5.7a2.33,2.33,0,0,1-.69-1c-.27-1.56-1.19-8.43-1.28-9C46.05,18.8,45.4,7,59.67,10.28a6.89,6.89,0,0,1,5.18,5.16A17.25,17.25,0,0,1,64.72,23Z"/><path class="cls-4" d="M64.1,25.24s.35,3.93-.06,4.81-3.05,6.37-5.83,6c-2.32-.29-8-3.68-10-5.7,2.41,1.67,8.84,5.95,10.73,5.29,2.33-.81,5-6,4.93-6.5s-.21-3.86-.21-3.86.47-1.06,1-2.35C64.56,23.68,64.35,24.44,64.1,25.24Z"/><path class="cls-4" d="M48.21,29.17a5.45,5.45,0,0,1-3.79-2.09,3.71,3.71,0,0,1-.38-.56c-.51-.93-.66-4.15.66-4.9.92-.52,1.59.24,1.91.74h0a3.11,3.11,0,0,1,.21.38Z"/><path class="cls-2" d="M48.21,29.17a5.45,5.45,0,0,1-3.79-2.09,2.63,2.63,0,0,1-.16-.26c-.51-.93-.66-4.15.66-4.89a1.25,1.25,0,0,1,1.69.43h0a3.11,3.11,0,0,1,.21.38Z"/><path class="cls-1" d="M44.28,24.18a1.49,1.49,0,0,0,.06.78,6.36,6.36,0,0,0,2.48,2.67,2.7,2.7,0,0,1-.37-1.69,6,6,0,0,0,.07-.61C46.53,24.53,44.67,22.66,44.28,24.18Z"/><path class="cls-3" d="M47.33,27.93l-.06,0-.16-.1a2.23,2.23,0,0,1-.51-.46,2.1,2.1,0,0,1-.42-.86,1.82,1.82,0,0,1,.13-1.13c0-.05,0-.1.07-.14l0,0h0l0,0,0-.06a.75.75,0,0,0-.07-.12,2.88,2.88,0,0,0-.31-.44q-.16-.21-.33-.39a3,3,0,0,0-.33-.3.76.76,0,0,0-.33-.15.63.63,0,0,0-.29,0q-.11.06-.12.12a.1.1,0,0,0,0,.05.09.09,0,0,1,0-.06.26.26,0,0,1,.11-.14.56.56,0,0,1,.33-.11.93.93,0,0,1,.44.13,2.7,2.7,0,0,1,.4.29,4.49,4.49,0,0,1,.4.37,3.94,3.94,0,0,1,.36.45l.09.13,0,.07.05.09,0,.06a.43.43,0,0,0,0,.07l-.05.09a.75.75,0,0,0-.07.12,1.9,1.9,0,0,0-.16,1,2,2,0,0,0,.27.82,2.56,2.56,0,0,0,.39.5,1.21,1.21,0,0,0,.13.12Z"/><path class="cls-17" d="M66,20.13s-1.82-2.44-2.84-1.47-.56,1.06-.56,1.06Z"/><path class="cls-17" d="M51.36,20.55s4.08-3.11,5.15-1.49c.62,1,0,1.37,0,1.37Z"/><path class="cls-11" d="M64.11,21.91a1.5,1.5,0,0,1-.74.64.7.7,0,0,0-.46-.21c-.5,0-.9.65-.9,1.44s.4,1.43.9,1.43.89-.64.89-1.43a2.05,2.05,0,0,0-.16-.81A2.64,2.64,0,0,0,64.11,21.91Z"/><path class="cls-11" d="M51.94,23.51l.22-.07a4.48,4.48,0,0,1,.58-.16,7.06,7.06,0,0,1,1.76-.18,7.59,7.59,0,0,1,1.78.24,6,6,0,0,1,.58.18l.23.08a1.41,1.41,0,0,0-.1-.18,2.06,2.06,0,0,0-.4-.45,3.37,3.37,0,0,0-2.12-.77,3.07,3.07,0,0,0-2.07.7,2,2,0,0,0-.37.43Z"/><path class="cls-10" d="M64.57,23.08a2.22,2.22,0,0,1-.83.63,2.12,2.12,0,0,1-1,.12,2.22,2.22,0,0,1,.83-.63A2.27,2.27,0,0,1,64.57,23.08Z"/><path class="cls-1" d="M58.86,27.76a2.18,2.18,0,0,0-.89-.23,3,3,0,0,0,1.62,1.56.53.53,0,0,0,.17,0,.36.36,0,0,0,.2-.08,3.45,3.45,0,0,0,1-.91.7.7,0,0,0,.13-.24c.07-.3-.14-.23-.32-.16a2.81,2.81,0,0,1-1.94,0Z"/><path class="cls-3" d="M59.65,28.92c.19-.17.39-.31.58-.47a4.84,4.84,0,0,0,.64-.64c-1-.68-1-1.69-.92-2.84a3.24,3.24,0,0,1,.42-1.49,3.09,3.09,0,0,1,.48-.66,2.06,2.06,0,0,1,.3-.29,1.14,1.14,0,0,1,.34-.19c-.06.07-.1.15-.16.22s-.29.36-.41.56a4,4,0,0,0-.31.62,4,4,0,0,0-.29,1.37,3.28,3.28,0,0,0,.22,1.35,2.67,2.67,0,0,0,1,1.25s-.66.78-.73.84a3.93,3.93,0,0,1-.55.44,1.26,1.26,0,0,1-.66.26.51.51,0,0,1-.21-.06.52.52,0,0,0,.11-.1l.05,0A1.59,1.59,0,0,1,59.65,28.92Z"/><path class="cls-10" d="M61,30.69a4.66,4.66,0,0,1-1.8,1.75,3.61,3.61,0,0,1-2.08.4,3.14,3.14,0,0,1-1.92-.92,5.22,5.22,0,0,1-1.29-2.39A16.14,16.14,0,0,1,61,30.69Z"/><path class="cls-3" d="M55.32,33.17a3.5,3.5,0,0,0,2.92.09A1.51,1.51,0,0,1,56.9,34,2.48,2.48,0,0,1,55.32,33.17Z"/><path class="cls-1" d="M62.53,28.17c.16.42,1.06.47,2,.11s1.6-1,1.45-1.4-1.06-.47-2-.11S62.38,27.75,62.53,28.17Z"/><path class="cls-1" d="M50.53,26.23c-.16.62.87,1.44,2.31,1.81s2.74.16,2.9-.46-.87-1.44-2.31-1.82S50.69,25.6,50.53,26.23Z"/><path class="cls-16" d="M65.85,16.21c0,.13,0,.26,0,.39l-.06,1.08a3.26,3.26,0,0,0,0,.92,22.91,22.91,0,0,1-4.17-5.74,4,4,0,0,1-.36-1.42,9.77,9.77,0,0,1-1.86,2.77A9.66,9.66,0,0,1,58,15.3a14,14,0,0,0-1.43.81,5.38,5.38,0,0,0,1.65-2.77c-1.91,2.77-4.94,4.56-8.06,5.82a5.7,5.7,0,0,0,1.46-2.44,17.53,17.53,0,0,1-7.46,5.54,5.94,5.94,0,0,1-1-1.7,8.29,8.29,0,0,1-.32-.86.19.19,0,0,0,0-.07,9,9,0,0,1-.32-1.55,14.06,14.06,0,0,1,1.26-7.34,9.69,9.69,0,0,1,4.52-4.85h0A10.27,10.27,0,0,1,53.88,4.8a17.49,17.49,0,0,1,5.35,1.5c.5.22,2.28,1.19,2.28,1.19a6.15,6.15,0,0,1,2.22.58,5.23,5.23,0,0,1,1.82,3.5c0,.24.08.48.11.71a24.24,24.24,0,0,1,.16,2.82c0,.24,0,.48,0,.71S65.85,16.07,65.85,16.21Z"/><path class="cls-16" d="M49.71,24.57c-.05-.15-.13-.37-.24-.64A6.81,6.81,0,0,0,49,23a4.29,4.29,0,0,0-.86-1A3.7,3.7,0,0,0,47,21.41a4.55,4.55,0,0,0-1-.25l-.34-.05L45.43,21l.08.14h-.46l.63.31.37.63a11.44,11.44,0,0,1,1.18,2.52,15.2,15.2,0,0,1,.5,2.76c.05.37.08.68.11.89s0,.33,0,.33L48,28.2c.06-.21.14-.51.21-.89A8.13,8.13,0,0,0,48.33,26a5.2,5.2,0,0,0-.23-1.69,5.12,5.12,0,0,0-.78-1.53,6.45,6.45,0,0,0-.87-1,7.21,7.21,0,0,1,1.24.8,12.12,12.12,0,0,1,1.48,1.53l.45.52.17.19Z"/><path class="cls-16" d="M48,21a27.61,27.61,0,0,0,7.84-4.68,3.29,3.29,0,0,1-1,1.39A11.46,11.46,0,0,0,61,13.16a4.72,4.72,0,0,0,.94-2.45,1.06,1.06,0,0,0,0-.43,1.06,1.06,0,0,0-.57-.49,4.5,4.5,0,0,0-3-.15A11,11,0,0,0,55.44,11a11.32,11.32,0,0,0-2.12,1.64c-1.22,1.26-1.39,2.64-2,4.16A10.48,10.48,0,0,1,48,21Z"/><path class="cls-16" d="M58.82,21.36a4.5,4.5,0,0,0,1.7-1.63,12.81,12.81,0,0,0,2.11-5.38A5.34,5.34,0,0,0,62.25,11c-.3-.55-1.46-1.49-1.94-.57-.29.56.38,1.83.49,2.42a11,11,0,0,1-.44,5.6A10.07,10.07,0,0,1,58.82,21.36Z"/><path class="cls-17" d="M62.53,10.52c-.27-.07-.55-.13-.83-.18a7.06,7.06,0,0,1,.1,2,9.41,9.41,0,0,0-1.66-2.52,9.51,9.51,0,0,1-3.45,2.94,7,7,0,0,0,.58-4.31,18.15,18.15,0,0,1-6.41,5.62,7.85,7.85,0,0,0,0-2.9,22.15,22.15,0,0,1-8.08,8.53l-.09.06.07-.13a8.79,8.79,0,0,0,1-3.2,15.8,15.8,0,0,1-1.28,1.65,14.82,14.82,0,0,1-4,3.16c.22-1.11.45-2.34.69-3.72A14.94,14.94,0,0,1,40.59,13a16.84,16.84,0,0,1,7.6-7.14h0A10.27,10.27,0,0,1,53.88,4.8a17.49,17.49,0,0,1,5.35,1.5l.18.08c.66.32,2.1,1.11,2.1,1.11a6.15,6.15,0,0,1,2.22.58,5.23,5.23,0,0,1,1.82,3.5A16.12,16.12,0,0,0,62.53,10.52Z"/><path class="cls-18" d="M59.51,8.06a14.39,14.39,0,0,0-5.84-1.35,16.66,16.66,0,0,1-2,2,2.74,2.74,0,0,0,0-1.7,15.83,15.83,0,0,1-6.49,4.7,6.67,6.67,0,0,0,1.13-2.1A12.22,12.22,0,0,1,40.59,13a16.84,16.84,0,0,1,7.6-7.14h0A10.27,10.27,0,0,1,53.88,4.8a17.49,17.49,0,0,1,5.35,1.5l.18.08-1,.34Z"/><path class="cls-18" d="M58.28,4.22a4.32,4.32,0,0,0-.66-2A4.54,4.54,0,0,0,55,0a5.48,5.48,0,0,1,4.62,2.05,2.79,2.79,0,0,1,0,3.39,3.31,3.31,0,0,1-.8.59,3.89,3.89,0,0,1-1.72.5C57.66,5.76,58.32,5.39,58.28,4.22Z"/><path class="cls-8" d="M64.29,43.9s2.89,1.74,3,4L64.62,72.7S62.85,47.6,64.29,43.9Z"/><path class="cls-1" d="M.63,36A3.53,3.53,0,0,0,2.2,37.55c1.14.71,2.25,1.57,3.4,2.28l2.1,2.32,3-2.49.88-.73L9.48,36.72a15.11,15.11,0,0,0,.23-5.91,23.49,23.49,0,0,1-.48-2.33,27.94,27.94,0,0,1,.25-3,1,1,0,0,0-.14-.67.71.71,0,0,0-.82-.14,1.78,1.78,0,0,0-.64.61l-.06.09a6.24,6.24,0,0,0-1,3.87,1,1,0,0,1-.06.51.7.7,0,0,1-.38.27,4.33,4.33,0,0,1-2.82,0,2.18,2.18,0,0,0-1.17-.17c-.56.15-.85.76-1,1.31a16.34,16.34,0,0,0-.77,3.32A3.25,3.25,0,0,0,.63,36Z"/><path class="cls-2" d="M8.28,36.88l2.41,2.78.88-.73L9.48,36.72a15.11,15.11,0,0,0,.23-5.91,23.49,23.49,0,0,1-.48-2.33,27.94,27.94,0,0,1,.25-3,1,1,0,0,0-.14-.67.71.71,0,0,0-.82-.14,1.78,1.78,0,0,0-.64.61l-.06.09a1.34,1.34,0,0,1,.56,0c.47.16.33.83.22,1.3a8.31,8.31,0,0,0,.3,3.45A13.16,13.16,0,0,1,8.28,36.88Z"/><path class="cls-3" d="M4.85,34.32a6.67,6.67,0,0,0,.06,3.14,5.3,5.3,0,0,1-.73-3A3.16,3.16,0,0,1,5.72,32a1.44,1.44,0,0,1,.54-.21c-.07.37-.62.79-.82,1.13A5.09,5.09,0,0,0,4.85,34.32Z"/><path class="cls-2" d="M.47,36.36A6.83,6.83,0,0,0,4,36.89a4.07,4.07,0,0,0,.43-1.1c0-.17.08-.36.11-.54A11,11,0,0,0,4.64,34c0-.2,0-.39,0-.59,0-.52,0-1,0-1.53,0-.2,0-.4,0-.6,0-.52-.1-1-.14-1.31s-.09-.63-.09-.63a9.43,9.43,0,0,0-3.77.5A5.79,5.79,0,0,0,.09,31.5,13.7,13.7,0,0,0,.47,36.36Z"/><path class="cls-3" d="M2.17,31.54s.2.06.51.12a9.49,9.49,0,0,0,1.17.16,6.53,6.53,0,0,0,.76,0c0-.2,0-.4,0-.6a3.32,3.32,0,0,0-.67-.13,3,3,0,0,0-1.25.2A2.42,2.42,0,0,0,2.17,31.54Z"/><path class="cls-3" d="M2.33,33.58s.2.07.48.14a6.67,6.67,0,0,0,1.11.21c.25,0,.5,0,.72,0,0-.2,0-.39,0-.59A2.72,2.72,0,0,0,4,33.21a3,3,0,0,0-1.18.15A2.58,2.58,0,0,0,2.33,33.58Z"/><path class="cls-3" d="M1.92,35.42l.5.16a7.45,7.45,0,0,0,1.18.21,6.93,6.93,0,0,0,.79,0c0-.17.08-.36.11-.54a3,3,0,0,0-.84-.18,3.47,3.47,0,0,0-1.24.14A2.44,2.44,0,0,0,1.92,35.42Z"/><path class="cls-4" d="M.09,31.5a4,4,0,0,1,1.17-1,5,5,0,0,1,1.32-.4,9.78,9.78,0,0,1,1.61-.24l.24,0c0-.39-.09-.63-.09-.63a9.43,9.43,0,0,0-3.77.5A5.79,5.79,0,0,0,.09,31.5Z"/><path class="cls-5" d="M48.14,50.58c.59,3.69-9.91,9.08-18.4,15.37a4.73,4.73,0,0,1-6.18-.45C19,60.9,8,46,5.36,39.94l4.88-3,1-.61S23.61,50.05,27.17,54.62c0,0,9.17-9,12.1-11a4.31,4.31,0,0,1,2,1.11C42,45.38,47.86,48.82,48.14,50.58Z"/><path class="cls-6" d="M38.24,46.74V44.11c-4.41,3.23-11.07,10.51-11.07,10.51C23.61,50.05,11.23,36.3,11.23,36.3l-1,.61c2.95,3.66,14.52,17.94,16.42,19,0,0-1.16,5.27-.21,4.37s1.53-4,1.53-4,1.81,2.15,2.09,1.86-.7-3.36-.7-3.36Z"/><path class="cls-7" d="M4.16,40l7.41-4.47a31.43,31.43,0,0,1,2.15,2.68c0,.19-7.46,4.63-7.46,4.63Z"/><path class="cls-8" d="M35.46,46s2.41-3.7,4.66-4.17c0,0,9.26,33.68-4.66,39.39C35.46,81.25,45.66,68.64,35.46,46Z"/><path class="cls-19" d="M27,32.65l.37,1.18.37-1.18a6.33,6.33,0,0,1,2.77-3.56h0a6.33,6.33,0,0,1-2.77-3.56l-.37-1.18L27,25.53a6.25,6.25,0,0,1-2.77,3.56h0A6.25,6.25,0,0,1,27,32.65Z"/><path class="cls-19" d="M31.23,24.82l.26.82.26-.82a4.31,4.31,0,0,1,1.92-2.47h0a4.37,4.37,0,0,1-1.92-2.48l-.26-.82-.26.82a4.41,4.41,0,0,1-1.92,2.48h0A4.35,4.35,0,0,1,31.23,24.82Z"/><path class="cls-19" d="M79.08,44.26l-.37,1.18-.37-1.18a6.27,6.27,0,0,0-2.77-3.57h0a6.25,6.25,0,0,0,2.77-3.56L78.71,36l.37,1.18a6.33,6.33,0,0,0,2.77,3.56h0A6.35,6.35,0,0,0,79.08,44.26Z"/><path class="cls-19" d="M74.84,36.42l-.25.82-.26-.82A4.38,4.38,0,0,0,72.41,34h0a4.41,4.41,0,0,0,1.92-2.48l.26-.82.25.82A4.38,4.38,0,0,0,76.77,34h0A4.36,4.36,0,0,0,74.84,36.42Z"/></g></g></svg>